<svg width="320" height="814" viewBox="0 0 320 814" fill="none" xmlns="http://www.w3.org/2000/svg">
<g opacity="0.3">
<path d="M-23.2861 624.258C-26.7839 623.165 -29.9839 621.625 -32.8479 619.653C-38.8536 615.516 -43.4357 609.445 -46.4667 601.607C-49.7255 593.185 -51.2217 582.629 -50.9159 570.233C-50.3001 545.318 -43.3604 517.419 -36.6491 490.438C-35.3318 485.14 -33.9694 479.662 -32.6869 474.334C-23.9527 438.019 -18.6743 405.468 -16.5485 374.82C-12.3083 313.683 -19.4276 258.151 -37.1383 214.226C-57.6213 163.429 -89.3476 131.397 -126.474 124.031C-148.296 119.703 -184.862 131.981 -212.529 163.824C-228.948 182.722 -239.64 206.048 -243.446 231.276L-243.612 231.336C-241.615 218.105 -237.77 205.417 -232.183 193.625C-227.057 182.808 -220.467 172.728 -212.593 163.666C-200.069 149.251 -184.713 137.807 -168.183 130.568C-152.909 123.88 -138.064 121.474 -126.381 123.792C-106.952 127.648 -89.0455 138.166 -73.1606 155.057C-58.7618 170.37 -46.5886 190.215 -36.9803 214.044C-19.2587 257.994 -12.1343 313.557 -16.3777 374.73C-18.5061 405.398 -23.7876 437.967 -32.5258 474.302C-33.8069 479.63 -35.1703 485.111 -36.489 490.408C-43.1963 517.369 -50.1307 545.249 -50.7445 570.127C-51.3394 594.19 -45.2754 610.775 -32.7222 619.421C-15.3385 631.395 13.9604 626.877 45.6517 607.332C91.3209 579.169 135.259 531.131 177.75 484.677C185.199 476.534 192.899 468.114 200.424 460.011C219.961 438.969 245.819 411.873 272.583 388.898C299.941 365.416 324.326 349.502 347.133 340.246C361.093 334.58 374.421 331.989 386.746 332.546C398.131 333.058 409.031 336.277 419.147 342.108C436.498 352.112 452.158 369.946 467.026 396.626C496.299 449.163 522.01 509.861 543.442 577.037C563.813 640.886 580.509 711.148 593.067 785.867L592.901 786.012C566.87 631.123 524.469 500.18 466.876 396.818C434.337 338.422 396.28 320.517 347.104 340.473C297.076 360.774 247.069 410.002 200.481 460.175C192.959 468.276 185.258 476.696 177.81 484.839C135.305 531.31 91.3529 579.363 45.6523 607.545C30.884 616.653 16.0635 622.725 2.79483 625.103C-4.21459 626.36 -10.7381 626.575 -16.5968 625.743C-18.9348 625.419 -21.1658 624.921 -23.2861 624.258Z" fill="#FFE492"/>
<path d="M-14.2259 612.201C-23.1456 609.413 -30.144 603.889 -35.0336 595.776C-40.4859 586.729 -43.2811 574.478 -43.3439 559.364C-43.3488 558.025 -43.3326 556.648 -43.2948 555.267C-42.6256 530.478 -36.0315 502.862 -29.6526 476.154C-28.3647 470.756 -27.0309 465.174 -25.7782 459.744C-18.3205 427.411 -13.579 398.341 -11.2864 370.877C-11.0047 367.496 -10.7565 364.097 -10.552 360.774C-6.80077 300.021 -14.3977 245.015 -32.521 201.7C-53.5602 151.487 -85.7466 120.225 -123.152 113.676C-145.029 109.875 -181.614 122.536 -209.216 154.088C-225.744 172.981 -236.705 196.276 -240.918 221.454L-241.083 221.509C-238.875 208.312 -234.858 195.652 -229.143 183.884C-223.894 173.076 -217.212 162.998 -209.28 153.929C-196.712 139.561 -181.376 128.092 -164.933 120.762C-149.735 113.987 -134.866 111.386 -123.064 113.438C-103.477 116.868 -85.3712 126.978 -69.2482 143.486C-54.6446 158.44 -42.2358 177.965 -32.3667 201.52C-14.2326 244.859 -6.63279 299.899 -10.385 360.685C-10.5905 364.01 -10.8383 367.413 -11.121 370.796C-13.4153 398.278 -18.1588 427.363 -25.6208 459.713C-26.8722 465.143 -28.2059 470.726 -29.4949 476.126C-35.868 502.817 -42.4582 530.413 -43.1264 555.168C-43.1636 556.544 -43.1798 557.922 -43.1752 559.257C-43.0491 590.497 -31.4443 606.818 -14.1839 612.214C-14.0893 612.244 -13.9959 612.273 -13.9012 612.303C-14.0084 612.266 -14.1177 612.235 -14.2259 612.201ZM-10.4736 613.188C6.18618 616.777 27.3331 611.274 48.3644 599.828C93.7914 574.997 138.65 528.735 182.032 483.997C183.819 482.153 185.605 480.313 187.39 478.474C191.309 474.435 195.952 469.656 200.662 464.846C221.786 443.28 246.852 418.339 272.597 396.885C299.989 374.057 324.3 358.362 346.918 348.9C360.811 343.096 374.139 340.115 386.532 340.039C398.014 339.968 409.075 342.391 419.405 347.239C437.249 355.617 453.555 371.326 469.256 395.268C484.574 418.585 496.329 439.7 506.248 461.72C520.29 492.937 531.636 527.395 540.885 556.984C562.317 625.93 579.708 702.048 592.574 783.225L592.408 783.367C579.544 702.202 562.155 626.09 540.725 557.152C531.478 527.566 520.134 493.115 506.095 461.906C496.178 439.892 484.426 418.783 469.11 395.472C434.908 343.316 396.071 328.589 346.889 349.13C295.829 370.486 244.663 420.148 200.711 465.021C196 469.83 191.359 474.608 187.439 478.648C185.655 480.486 183.869 482.328 182.081 484.172C138.685 528.924 93.8105 575.202 48.3509 600.052C37.0944 606.178 26.102 610.403 15.6785 612.607C5.97781 614.654 -2.80027 614.848 -10.4736 613.188Z" fill="#FFE492"/>
<path d="M-4.9378 600.556C-6.01083 600.221 -7.05998 599.847 -8.08284 599.435C-16.7014 595.967 -23.427 589.848 -28.07 581.243C-33.148 571.832 -35.7256 559.439 -35.729 544.405C-35.7276 543.066 -35.7076 541.687 -35.6671 540.307C-34.9455 515.656 -28.6949 488.329 -22.6498 461.905C-21.3898 456.397 -20.0872 450.701 -18.8665 445.16C-11.7333 412.843 -7.26436 383.932 -5.20637 356.775C-4.953 353.417 -4.73214 350.038 -4.55397 346.734C-1.29263 286.368 -9.36725 231.887 -27.9031 189.182C-49.4973 139.554 -82.1427 109.06 -119.828 103.327C-141.067 100.146 -177.052 111.62 -205.871 144.325C-222.521 163.22 -233.765 186.498 -238.388 211.641L-238.551 211.689C-236.13 198.516 -231.935 185.879 -226.088 174.129C-220.71 163.321 -213.93 153.242 -205.934 144.167C-193.322 129.855 -178.013 118.372 -161.661 110.955C-146.543 104.099 -131.655 101.307 -119.741 103.091C-99.9971 106.097 -81.6899 115.797 -65.3301 131.922C-50.5214 146.52 -37.8773 165.723 -27.7488 189.002C-9.20312 231.734 -1.12467 286.245 -4.38691 346.645C-4.56609 349.952 -4.78562 353.331 -5.04102 356.694C-7.10098 383.866 -11.5729 412.794 -18.7105 445.129C-19.9321 450.672 -21.2348 456.369 -22.4947 461.876C-28.5351 488.285 -34.7818 515.593 -35.5031 540.214C-35.5436 541.595 -35.5653 542.97 -35.5647 544.305C-35.5504 605.392 7.96555 612.437 51.0832 592.323C96.4857 570.924 142.616 526.19 187.227 482.929L187.685 482.485C192.007 478.291 196.476 473.956 200.907 469.682C247.654 424.59 297.42 378.788 346.712 357.553C360.542 351.61 373.872 348.238 386.33 347.531C397.916 346.873 409.135 348.501 419.674 352.369C438.048 359.113 454.999 372.7 471.497 393.908C488.858 416.144 500.861 435.346 510.416 456.173C524.01 485.892 534.333 521.303 543.44 552.546C563.588 622.407 579.957 699.128 592.093 780.573L591.927 780.713C579.792 699.276 563.424 622.563 543.279 552.708C534.173 521.471 523.852 486.066 510.262 456.356C500.711 435.536 488.712 416.34 471.357 394.112C435.596 348.141 395.982 336.595 346.687 357.776C297.426 378.998 247.681 424.779 200.952 469.855C196.521 474.13 192.051 478.466 187.73 482.658L187.272 483.102C165.041 504.66 142.053 526.952 119.314 546.174C93.7592 567.775 71.4342 582.942 51.0625 592.542C29.8046 602.458 10.0885 605.253 -4.9378 600.556Z" fill="#FFE492"/>
<path d="M591.438 778.054C580.031 696.344 564.684 619.031 545.825 548.262C545.018 545.283 544.213 542.29 543.405 539.289C535.187 508.749 526.689 477.171 514.422 450.804C502.498 425.278 487.093 407.134 473.596 392.752C436.406 352.9 396.013 344.534 346.477 366.419C295.583 388.986 243.241 436.505 201.185 474.69C198.66 476.981 196.137 479.279 193.609 481.578C191.744 483.275 189.877 484.973 188.012 486.668C164.054 508.436 142.434 527.835 120.452 544.832C95.3408 564.248 73.528 577.398 53.7636 585.035C35.2408 592.193 18.0985 593.685 4.56637 589.457C2.10101 588.687 -0.242241 587.728 -2.45491 586.576C-10.5335 582.374 -16.8154 575.697 -21.1252 566.731C-25.8284 556.948 -28.1845 544.403 -28.1305 529.443C-28.124 528.103 -28.099 526.723 -28.0547 525.341C-27.2796 500.837 -21.3732 473.815 -15.6608 447.683C-14.4302 442.055 -13.1577 436.232 -11.9669 430.567C-5.15909 398.257 -0.963103 369.503 0.863952 342.662C1.09106 339.323 1.28224 335.967 1.43445 332.683C4.20451 272.703 -4.34646 218.749 -23.2925 176.652C-45.4416 127.607 -78.5467 97.8875 -116.509 92.9635C-142.498 89.6802 -177.857 106.767 -202.497 134.513C-219.284 153.416 -230.821 176.688 -235.862 201.812L-236.024 201.854C-233.385 188.699 -229.01 176.076 -223.023 164.335C-217.51 153.524 -210.625 143.437 -202.559 134.353C-189.908 120.106 -174.629 108.614 -158.376 101.121C-143.343 94.1903 -128.444 91.2079 -116.423 92.7273C-96.5209 95.307 -78.0153 104.598 -61.4187 120.34C-46.4062 134.582 -33.5251 153.466 -23.1362 176.467C-4.17793 218.589 4.37683 272.574 1.60487 332.59C1.45299 335.876 1.26079 339.235 1.03372 342.574C-0.793984 369.431 -4.99333 398.2 -11.8031 430.525C-12.995 436.193 -14.2665 442.013 -15.498 447.644C-21.207 473.76 -27.1092 500.766 -27.884 525.241C-27.9273 526.62 -27.9526 527.997 -27.9595 529.335C-28.1924 593.683 15.9376 599.432 53.797 584.804C98.9675 567.349 146.254 524.387 187.977 486.481C189.843 484.784 191.709 483.086 193.574 481.391C196.1 479.092 198.625 476.795 201.15 474.503C225.156 452.708 248.688 431.591 272.64 412.841C300.185 391.278 324.346 376.02 346.503 366.194C360.276 360.108 373.606 356.345 386.121 355.013C397.819 353.765 409.196 354.6 419.938 357.49C438.883 362.588 456.48 374.054 473.733 392.54C487.234 406.928 502.646 425.08 514.576 450.621C526.85 476.998 535.348 508.585 543.569 539.13C544.376 542.131 545.182 545.124 545.989 548.104C564.85 618.878 580.197 696.2 591.605 777.917L591.438 778.054Z" fill="#FFE492"/>
<path d="M590.954 775.398C580.069 691.858 565.746 613.942 548.377 543.818C547.337 539.622 546.286 535.303 545.268 531.128C537.979 501.224 530.442 470.302 518.588 445.253C506.722 420.306 490.321 404.025 475.842 391.391C437.379 357.577 396.206 352.389 346.272 375.064C298.594 396.809 251.24 437.118 205.446 476.099L200.418 480.378C196.446 483.759 192.341 487.252 188.301 490.676C142.597 529.379 98.126 565.142 56.4737 577.524C46.3662 580.529 36.7673 581.8 27.9385 581.308C18.4587 580.777 10.1321 578.208 3.18974 573.672C-4.35027 568.745 -10.1896 561.52 -14.1655 552.199C-18.4926 542.055 -20.6305 529.363 -20.5189 514.48C-20.5066 513.133 -20.4766 511.752 -20.4292 510.374C-19.604 486.032 -14.04 459.328 -8.65857 433.502C-7.45786 427.739 -6.2168 421.779 -5.05608 415.977C1.42186 383.671 5.34758 355.074 6.94442 328.555C7.14352 325.241 7.30842 321.903 7.43299 318.638C9.71311 259.044 0.685802 205.616 -18.6731 164.127C-41.3805 115.67 -74.9447 86.7187 -113.188 82.6082C-139.181 79.9188 -174.503 97.2143 -199.083 124.67C-216.02 143.588 -227.864 166.867 -233.334 191.992L-233.496 192.03C-230.634 178.883 -226.073 166.265 -219.942 154.529C-214.289 143.709 -207.292 133.609 -199.147 124.512C-186.457 110.339 -171.217 98.8503 -155.071 91.2867C-140.127 84.2856 -125.224 81.1211 -113.105 82.3734C-93.0455 84.5293 -74.3403 93.4098 -57.5056 108.769C-42.288 122.654 -29.1716 141.216 -18.5219 163.943C0.848895 205.455 9.88036 258.916 7.59933 318.543C7.47375 321.811 7.30921 325.152 7.11011 328.465C5.51362 354.999 1.58592 383.61 -4.89635 415.934C-6.0571 421.736 -7.29911 427.699 -8.49982 433.461C-13.8779 459.272 -19.4396 485.964 -20.2633 510.277C-20.3099 511.65 -20.339 513.029 -20.3526 514.375C-20.828 577.752 19.042 588.432 56.5136 577.292C98.1321 564.921 142.586 529.171 188.27 490.486C192.309 487.062 196.415 483.568 200.386 480.187L205.415 475.908C227.893 456.775 251.137 436.987 274.784 419.214C301.567 399.084 324.958 384.569 346.293 374.837C360.016 368.605 373.347 364.452 385.915 362.495C397.731 360.654 409.267 360.693 420.203 362.61C439.773 366.04 458.012 375.383 475.97 391.171C490.456 403.812 506.866 420.099 518.739 445.066C530.601 470.126 538.14 501.057 545.43 530.969C546.448 535.144 547.5 539.461 548.539 543.658C565.91 613.789 580.235 691.711 591.119 775.258L590.954 775.398Z" fill="#FFE492"/>
<path d="M590.467 772.741C580.274 688.527 566.97 610.01 550.925 539.374C549.719 534.066 548.51 528.56 547.341 523.237C540.896 493.895 534.232 463.554 522.748 439.705C510.837 415.109 493.487 400.793 478.083 390.033C438.542 362.145 396.591 360.138 346.062 383.711C301.912 404.412 257.871 439.541 215.279 473.512C210.797 477.087 206.163 480.783 201.658 484.358C196.367 488.558 192.335 491.745 188.585 494.688C168.509 510.439 144.931 528.431 122.28 542.446C98.2774 557.296 77.6367 566.315 59.1771 570.019C49.4703 571.966 40.3332 572.252 32.0192 570.865C23.0919 569.377 15.2883 565.98 8.82832 560.768C1.82895 555.122 -3.56658 547.35 -7.21166 537.67C-11.1643 527.173 -13.0812 514.334 -12.912 499.517C-12.894 498.175 -12.8602 496.792 -12.8095 495.41C-11.9344 471.248 -6.71107 444.876 -1.66126 419.372C-0.49006 413.456 0.7211 407.341 1.85097 401.386C7.99904 369.072 11.6521 340.635 13.0198 314.445C13.1916 311.152 13.3282 307.837 13.4264 304.59C15.2166 245.383 5.7116 192.481 -14.0588 151.599C-37.3208 103.73 -71.3461 75.5509 -109.866 72.2496C-131.826 70.4676 -166.862 82.9293 -195.631 114.783C-212.736 133.722 -224.9 157.024 -230.807 182.167L-230.965 182.197C-227.878 169.05 -223.124 156.431 -216.839 144.689C-211.037 133.852 -203.923 123.736 -195.69 114.621C-182.966 100.533 -167.77 89.0573 -151.74 81.4309C-136.889 74.3663 -121.989 71.0224 -109.783 72.0125C-89.5654 73.7445 -70.6593 82.2146 -53.5891 97.1899C-38.1678 110.719 -24.8157 128.961 -13.9066 151.413C5.87573 192.317 15.3859 245.25 13.5948 304.491C13.4965 307.738 13.3593 311.058 13.1865 314.353C11.8179 340.556 8.16275 369.008 2.01269 401.338C0.883184 407.296 -0.327976 413.411 -1.49919 419.327C-6.548 444.818 -11.7666 471.176 -12.6412 495.311C-12.6908 496.691 -12.7249 498.071 -12.7419 499.41C-13.3523 552.636 13.5543 578.942 59.2328 569.778C100.599 561.481 145.807 528.032 188.567 494.485C192.316 491.542 196.347 488.355 201.637 484.155C206.142 480.579 210.777 476.884 215.259 473.309C236.227 456.585 257.907 439.292 279.845 423.61C304.653 405.875 326.322 392.749 346.087 383.483C359.769 377.1 373.099 372.556 385.71 369.98C397.655 367.539 409.349 366.784 420.47 367.733C440.718 369.463 459.604 376.683 478.208 389.804C493.619 400.571 510.983 414.894 522.903 439.512C534.395 463.376 541.06 493.725 547.506 523.076C548.676 528.399 549.884 533.905 551.091 539.213C567.136 609.857 580.442 688.38 590.637 772.6L590.467 772.741Z" fill="#FFE492"/>
<path d="M589.976 770.084C580.479 685.192 568.197 606.072 553.47 534.929C552.216 528.877 550.979 522.549 549.78 516.43C544.071 487.28 538.169 457.141 526.907 434.153C514.888 409.773 496.614 397.481 480.324 388.672C440.502 366.874 396.515 368.079 345.852 392.355C305.457 411.813 264.988 442.086 225.852 471.363C217.946 477.277 209.773 483.393 201.888 489.193C197.064 492.743 192.805 495.854 188.866 498.7C170.552 511.918 146.536 528.7 123.186 541.25C99.7239 553.858 79.6688 560.814 61.8761 562.511C42.4698 564.364 26.0737 559.297 14.46 547.861C8.0033 541.502 3.04927 533.185 -0.264357 523.14C-3.8419 512.295 -5.5389 499.313 -5.31233 484.559C-5.28923 483.216 -5.25039 481.832 -5.19701 480.451C-4.2733 456.49 0.608017 430.471 5.32898 405.311C6.47093 399.224 7.65221 392.932 8.74978 386.802C14.5646 354.474 17.9471 326.191 19.0883 300.343C19.2328 297.07 19.3421 293.776 19.413 290.55C20.7133 231.729 10.7329 179.351 -9.45106 139.082C-33.2686 91.8015 -67.7539 64.3935 -106.553 61.901C-132.9 60.3369 -167.298 77.6025 -192.143 104.861C-209.433 123.83 -221.931 147.168 -228.286 172.352L-228.443 172.375C-225.122 159.215 -220.17 146.584 -213.726 134.833C-207.77 123.973 -200.528 113.833 -192.201 104.697C-179.447 90.7033 -164.3 79.2493 -148.397 71.5725C-133.647 64.4526 -118.755 60.9307 -106.471 61.6608C-86.0958 62.9688 -66.9898 71.0309 -49.6818 85.6206C-34.0554 98.7941 -20.4677 116.716 -9.29819 138.89C10.8967 179.184 20.8832 231.591 19.5824 290.449C19.5114 293.675 19.4011 296.971 19.257 300.246C18.1138 326.111 14.7303 354.406 8.91355 386.749C7.81598 392.879 6.63372 399.174 5.49176 405.261C0.77313 430.408 -4.10588 456.415 -5.02868 480.352C-5.08204 481.733 -5.1202 483.112 -5.1433 484.455C-5.95973 537.27 19.1185 566.36 61.9414 562.274C100.981 558.547 146.01 529.418 188.852 498.497C192.79 495.65 197.05 492.542 201.872 488.991C209.755 483.191 217.929 477.077 225.833 471.164C264.978 441.881 305.455 411.6 345.868 392.134C359.522 385.591 372.854 380.66 385.494 377.471C397.583 374.424 409.437 372.874 420.725 372.864C441.719 372.848 461.25 377.946 480.434 388.446C496.736 397.261 515.027 409.561 527.057 433.969C538.328 456.972 544.232 487.123 549.943 516.284C551.141 522.403 552.38 528.729 553.634 534.78C568.361 605.929 580.645 685.055 590.143 769.953L589.976 770.084Z" fill="#FFE492"/>
<path d="M589.491 767.428C580.696 681.852 569.434 602.134 556.02 530.486C554.788 523.902 553.59 516.964 552.433 510.254C547.399 481.085 542.195 450.921 531.07 428.604C518.901 404.352 499.722 394.122 482.566 387.313C442.227 371.045 397.439 375.521 345.645 401.001C309.268 418.993 272.679 444.718 237.294 469.594C225.127 478.149 213.633 486.229 202.125 494.027C197.442 497.202 193.199 500.044 189.152 502.711C163.049 519.898 142.378 531.762 124.099 540.046C101.167 550.441 81.6987 555.334 64.5831 555.002C57.9437 554.873 51.6956 553.89 45.9218 552.085C35.6869 548.885 26.9355 543.108 20.1001 534.948C7.72995 520.179 1.7403 498.191 2.29719 469.595C2.32665 468.24 2.36955 466.858 2.42634 465.483C3.39635 441.747 7.93677 416.11 12.329 391.315C13.4413 385.033 14.5922 378.54 15.6594 372.209C21.1395 339.856 24.2481 311.733 25.1676 286.232C25.2848 282.98 25.3667 279.707 25.4104 276.501C26.2207 218.067 15.7627 166.215 -4.83287 126.553C-29.207 79.8646 -64.15 53.2253 -103.227 51.5416C-129.922 50.5254 -163.432 67.5368 -188.596 94.8823C-206.087 113.889 -218.935 137.28 -225.753 162.527L-225.909 162.544C-222.349 149.361 -217.191 136.709 -210.579 124.939C-204.458 114.045 -197.083 103.878 -188.653 94.7183C-175.874 80.8308 -160.786 69.4114 -145.018 61.6923C-130.372 54.5213 -115.503 50.8331 -103.148 51.3033C-82.6152 52.1874 -63.3083 59.8391 -45.7649 74.0452C-29.9343 86.8652 -16.1123 104.467 -4.68 126.362C15.9264 166.048 26.3906 217.929 25.5807 276.398C25.5361 279.606 25.4542 282.879 25.3373 286.133C24.4182 311.647 21.3076 339.786 15.8252 372.152C14.7579 378.482 13.6074 384.978 12.4937 391.26C8.10384 416.043 3.56475 441.669 2.59603 465.384C2.54025 466.757 2.49601 468.139 2.46753 469.491C1.42575 522.895 24.0941 553.975 64.6608 554.761C103.278 555.508 149.259 528.761 189.149 502.497C193.194 499.83 197.436 496.991 202.119 493.816C213.626 486.017 225.119 477.939 237.285 469.384C272.676 444.502 309.273 418.774 345.663 400.776C359.309 394.063 372.641 388.74 385.291 384.954C397.543 381.288 409.556 378.942 420.994 377.985C442.806 376.162 462.983 379.136 482.673 387.078C499.844 393.892 519.04 404.132 531.223 428.412C542.358 450.746 547.563 480.923 552.599 510.104C553.757 516.814 554.954 523.751 556.185 530.333C569.6 601.986 580.862 681.712 589.658 767.294L589.491 767.428Z" fill="#FFE492"/>
<path d="M589.011 764.774C580.809 677.293 570.853 599.204 558.576 526.042C557.403 519.062 556.342 511.976 555.218 504.473C550.825 475.145 546.28 444.821 535.238 423.056C522.816 398.733 501.766 390.452 484.815 385.955C444.358 374.977 398.768 382.728 345.441 409.652C313.398 425.917 281.049 447.367 249.764 468.112C233.322 479.015 217.794 489.31 202.364 498.865C197.782 501.705 193.554 504.275 189.441 506.724C163.959 521.875 143.488 532.079 125.016 538.841C102.595 547.049 83.7144 549.879 67.2937 547.494C58.8569 546.268 51.1095 543.581 44.2666 539.506C37.0217 535.192 30.7902 529.312 25.7449 522.033C14.5624 505.897 9.23447 483.223 9.90968 454.637C9.94422 453.281 9.9922 451.898 10.0517 450.524C11.0647 427.048 15.2663 401.821 19.3288 377.426C20.4128 370.917 21.5339 364.185 22.571 357.625C27.7118 325.24 30.5501 297.274 31.2476 272.129C31.3361 268.898 31.3907 265.645 31.4097 262.461C31.7302 204.414 20.7958 153.088 -0.211266 114.034C-19.6478 78.0969 -45.4546 54.4492 -74.5316 45.3595C-82.7517 42.7899 -91.2267 41.3846 -99.8998 41.1908C-126.507 40.731 -159.91 57.8743 -184.999 84.8655C-202.709 103.919 -215.926 127.38 -223.22 152.711L-223.375 152.722C-219.569 139.503 -214.197 126.82 -207.41 115.025C-201.119 104.091 -193.597 93.8875 -185.056 84.6988C-172.257 70.9291 -157.237 59.5552 -141.615 51.8039C-126.868 44.486 -112.417 40.7336 -99.8255 40.9535C-79.1352 41.4137 -59.6284 48.6574 -41.8471 62.4779C-25.8118 74.9392 -11.7519 92.2193 -0.0601107 113.839C20.9589 152.915 31.9008 204.27 31.5808 262.353C31.5631 265.537 31.5088 268.792 31.4193 272.026C30.7209 297.184 27.8816 325.163 22.7389 357.563C21.7017 364.124 20.5819 370.855 19.4969 377.366C15.4358 401.752 11.2355 426.969 10.2227 450.426C10.1642 451.798 10.1163 453.181 10.0814 454.534C8.81972 507.988 29.7056 541.781 67.3847 547.254C105.512 552.791 152.646 528.384 189.45 506.504C193.563 504.055 197.79 501.484 202.37 498.647C217.797 489.096 233.325 478.798 249.765 467.897C281.053 447.15 313.408 425.694 345.462 409.424C372.917 395.563 397.712 386.957 421.266 383.113C443.982 379.406 464.803 380.258 484.918 385.716C496.42 388.767 505.277 392.482 512.795 397.405C522.5 403.762 529.892 412.089 535.394 422.863C546.447 444.647 550.992 474.988 555.388 504.33C556.512 511.832 557.575 518.916 558.744 525.896C571.022 599.06 580.979 677.155 589.182 764.641L589.011 764.774Z" fill="#FFE492"/>
<path d="M588.52 762.115C581.039 673.93 572.075 595.257 561.12 521.595C560.036 514.307 559.084 506.851 558.075 498.957C554.297 469.379 550.392 438.793 539.396 417.502C526.772 393.211 504.792 387.154 487.055 384.589C447.007 378.58 400.614 389.605 345.23 418.291C317.901 432.521 290.221 449.93 263.452 466.768C242.291 480.077 222.304 492.649 202.598 503.691C198.142 506.19 193.81 508.557 189.724 510.725C165.107 523.775 144.24 532.571 125.929 537.619C104.003 543.663 85.7074 544.435 69.9971 539.975C62.0042 537.705 54.719 534.025 48.3502 529.032C41.6741 523.798 35.9661 517.093 31.3854 509.1C21.3873 491.655 16.7198 468.294 17.5145 439.665C17.5548 438.314 17.6065 436.929 17.6704 435.548C18.7238 412.376 22.5858 387.603 26.3197 363.647C27.3765 356.869 28.4691 349.858 29.4761 343.024C34.276 310.597 36.8417 282.79 37.3223 258.011C37.3835 254.8 37.4108 251.568 37.4025 248.405C37.233 190.744 25.821 139.944 4.40232 101.498C-21.0846 55.995 -56.9491 30.8965 -96.5813 30.8258C-123.073 30.9046 -156.35 48.159 -181.356 74.7802C-199.304 93.889 -212.907 117.437 -220.697 142.882L-220.849 142.885C-216.788 129.622 -211.194 116.896 -204.221 105.064C-197.747 94.0807 -190.073 83.834 -181.411 74.6116C-168.6 60.973 -153.655 49.6555 -138.189 41.8819C-123.561 34.5295 -109.148 30.6242 -96.5059 30.5862C-75.6577 30.6252 -55.9504 37.4558 -37.9337 50.8927C-21.6953 63.0028 -7.40104 79.9626 4.55215 101.303C25.985 139.769 37.4022 190.6 37.5708 248.296C37.5805 251.459 37.5535 254.694 37.4913 257.907C37.0111 282.7 34.443 310.519 29.6421 342.959C28.6365 349.793 27.5426 356.804 26.4861 363.585C22.7536 387.531 18.8929 412.293 17.8401 435.45C17.7772 436.828 17.7255 438.213 17.6849 439.562C16.1707 494.136 34.7825 529.717 70.0971 539.736C98.7501 547.869 136.768 538.577 189.739 510.498C193.823 508.33 198.153 505.965 202.608 503.466C222.31 492.425 242.295 479.857 263.453 466.547C290.226 449.708 317.91 432.295 345.247 418.062C373.172 403.598 398.121 393.842 421.525 388.231C445.234 382.548 466.7 381.275 487.147 384.344C504.903 386.91 526.908 392.978 539.551 417.306C550.558 438.621 554.466 469.222 558.246 498.813C559.253 506.707 560.207 514.161 561.29 521.446C572.247 595.111 581.21 673.789 588.69 761.98L588.52 762.115Z" fill="#FFE492"/>
<path d="M588.036 759.46C581.282 670.568 573.314 591.308 563.672 517.153C562.694 509.624 561.869 501.862 560.996 493.644C557.822 463.748 554.538 432.834 543.563 411.954C530.718 387.669 507.818 383.846 489.303 383.229C449.839 381.725 403.995 395.614 345.026 426.938C322.878 438.761 300.384 452.293 278.631 465.38C252.21 481.274 227.254 496.288 202.836 508.526C198.435 510.734 194.12 512.825 190.012 514.736C165.83 525.981 145.169 533.069 126.849 536.401C116.587 538.268 106.962 538.936 98.2408 538.387C88.9386 537.799 80.3474 535.807 72.7056 532.467C57.2017 525.688 45.1997 513.477 37.0335 496.176C28.2143 477.49 24.2075 453.446 25.1273 424.705C25.1743 423.345 25.2311 421.959 25.2946 420.586C26.3849 397.77 29.9064 373.508 33.3122 350.048C34.3428 342.945 35.4094 335.601 36.3866 328.437C40.8406 295.957 43.1348 268.308 43.4012 243.906C43.4361 240.713 43.4347 237.502 43.3994 234.362C42.741 177.085 30.8526 126.811 9.02041 88.977C-17.0227 44.0688 -53.346 19.7414 -93.2573 20.4739C-136.075 21.4515 -196.005 64.7749 -218.165 133.064L-218.316 133.06C-212.773 115.977 -204.822 99.9259 -194.686 85.3479C-185.429 72.0341 -174.534 60.1864 -162.307 50.1377C-150.939 40.7936 -138.943 33.408 -126.654 28.1847C-114.967 23.2174 -103.392 20.4664 -93.1847 20.2334C-72.1789 19.8486 -52.2716 26.2711 -34.0182 39.3248C-17.5756 51.0814 -3.04575 67.7214 9.16787 88.7839C31.011 126.643 42.9069 176.945 43.5667 234.255C43.6023 237.397 43.6037 240.609 43.5692 243.804C43.3028 268.217 41.0067 295.882 36.5517 328.374C35.5744 335.539 34.5078 342.882 33.4764 349.987C30.0722 373.441 26.552 397.692 25.4627 420.495C25.3978 421.868 25.3397 423.253 25.2936 424.61C23.5279 479.845 40.4053 518.066 72.8134 532.237C100.251 544.231 138.593 538.435 190.033 514.514C194.139 512.602 198.452 510.513 202.852 508.305C227.264 496.071 252.217 481.058 278.634 465.165C300.389 452.077 322.886 438.542 345.038 426.718C404.03 395.38 449.895 381.487 489.381 382.99C501.823 383.405 511.454 385.305 519.693 388.973C530.226 393.661 538.082 401.115 543.713 411.761C554.701 432.664 557.986 463.597 561.163 493.51C562.036 501.726 562.86 509.488 563.838 517.013C573.481 591.174 581.449 670.437 588.203 759.334L588.036 759.46Z" fill="#FFE492"/>
<path d="M587.554 756.805C581.535 667.197 574.557 587.353 566.226 512.709C565.363 504.986 564.678 496.964 563.955 488.468C561.372 458.204 558.702 426.908 547.729 406.403C534.502 381.829 509.333 380.63 491.551 381.866C443.376 385.021 390.345 410.79 344.823 435.586C328.439 444.548 311.768 454.255 295.645 463.641C263.301 482.471 232.752 500.256 203.076 513.362C198.71 515.291 194.414 517.103 190.302 518.75C166.487 528.263 146.033 533.639 127.773 535.183C107.074 536.935 89.4591 533.496 75.4164 524.959C60.9909 516.189 49.9778 502.155 42.686 483.248C35.0368 463.418 31.6908 438.69 32.7387 409.747C32.7911 408.389 32.8516 407.001 32.9199 405.624C34.0399 383.243 37.2217 359.572 40.298 336.678C41.3071 329.175 42.3482 321.419 43.2982 313.851C47.4614 280.855 49.425 254.149 49.4824 229.801C49.4899 226.629 49.4616 223.441 49.3987 220.319C48.2466 163.431 35.8806 113.683 13.6379 76.4539C-12.9625 32.1424 -49.7448 8.58323 -89.934 10.1194C-133.27 11.9504 -192.137 54.7636 -215.636 123.246L-215.783 123.234C-209.953 106.244 -201.816 90.2698 -191.601 75.7561C-182.241 62.4588 -171.311 50.6063 -159.114 40.5321C-147.74 31.1365 -135.753 23.6655 -123.484 18.322C-111.801 13.2336 -100.174 10.3155 -89.8613 9.87896C-68.6966 9.0706 -48.5908 15.0847 -30.1009 27.7524C-13.4542 39.1554 1.31127 55.4757 13.7863 76.2584C36.0433 113.507 48.4155 163.284 49.5653 220.207C49.6272 223.331 49.6559 226.522 49.6497 229.694C49.5937 254.053 47.6267 280.773 43.4625 313.782C42.5125 321.351 41.4705 329.109 40.4614 336.612C37.3867 359.498 34.2066 383.163 33.0852 405.533C33.0169 406.91 32.9561 408.294 32.9037 409.652C30.8672 465.914 46.0061 506.783 75.5324 524.733C102.013 540.831 139.565 538.798 190.332 518.52C194.441 516.875 198.737 515.065 203.099 513.136C232.769 500.033 263.313 482.251 295.651 463.422C311.775 454.036 328.448 444.327 344.834 435.363C375.444 418.692 399.983 406.976 422.056 398.493C448.041 388.507 470.794 382.991 491.619 381.627C504.336 380.743 514.65 381.766 523.149 384.758C534.092 388.609 542.182 395.626 547.879 406.211C558.868 426.741 561.538 458.056 564.122 488.339C564.846 496.833 565.53 504.854 566.393 512.573C574.726 587.22 581.702 667.068 587.723 756.68L587.554 756.805Z" fill="#FFE492"/>
<path d="M587.064 754.146C581.783 663.82 575.8 583.391 568.772 508.261C568.035 500.383 567.498 492.136 566.931 483.405C564.936 452.732 562.874 421.014 551.888 400.851C538.414 376.247 512.28 377.453 493.793 380.503C448.208 387.867 399.261 413.721 344.612 444.229C334.744 449.76 324.695 455.511 314.975 461.075C277.596 482.469 238.946 504.591 203.308 518.194C198.977 519.849 194.695 521.384 190.583 522.757C167.402 530.482 146.579 534.25 128.69 533.956C108.426 533.623 91.412 528.068 78.1163 517.447C64.7612 506.777 54.7394 490.919 48.3283 470.312C41.8408 449.458 39.1518 424.047 40.3367 394.785C40.3942 393.426 40.4597 392.038 40.5307 390.662C41.6753 368.82 44.5137 345.844 47.2585 323.625C48.2474 315.619 49.2701 307.342 50.1943 299.265C53.9993 266.192 55.6998 239.638 55.5469 215.698C55.5268 212.555 55.4708 209.384 55.3812 206.278C53.7463 149.77 40.9053 100.549 18.2473 63.9291C-8.90899 20.2147 -46.15 -2.57335 -86.6187 -0.236658C-128.93 2.35322 -187.642 43.0668 -213.114 113.423L-213.258 113.404C-207.14 96.5043 -198.818 80.6094 -188.525 66.16C-179.061 52.8763 -168.095 41.0218 -155.93 30.9217C-133.487 12.2903 -108.199 0.845854 -86.5487 -0.477966C-65.2274 -1.70789 -44.9207 3.89579 -26.193 16.178C-9.34324 27.2298 5.65755 43.2276 18.394 63.7304C41.0649 100.37 53.9125 149.622 55.5522 206.159C55.6421 209.268 55.6981 212.438 55.7185 215.584C55.8705 239.537 54.1701 266.102 50.3627 299.188C49.4375 307.267 48.4162 315.544 47.4272 323.55C44.6832 345.764 41.8453 368.735 40.7007 390.566C40.6284 391.942 40.5639 393.328 40.5064 394.687C38.1353 453.231 51.1843 495.603 78.2417 517.223C103.297 537.241 141.104 539.025 190.619 522.524C194.73 521.151 199.008 519.617 203.336 517.964C238.962 504.365 277.607 482.247 314.979 460.855C324.699 455.291 334.748 449.54 344.617 444.01C368.539 430.655 396.244 415.421 422.313 403.62C449.582 391.277 472.981 383.638 493.847 380.267C507.003 378.098 517.716 378.188 526.594 380.543C537.792 383.512 546.349 390.281 552.033 400.66C556.955 409.692 560.528 421.993 562.958 438.266C565.105 452.635 566.116 468.216 567.096 483.281C567.663 492.01 568.199 500.256 568.936 508.132C575.965 583.265 581.949 663.696 587.23 754.025L587.064 754.146Z" fill="#FFE492"/>
<path d="M586.582 751.491C582.046 660.44 577.055 579.426 571.325 503.819C570.717 495.814 570.336 487.371 569.931 478.435C568.522 447.321 567.066 415.147 556.054 395.305C545.746 376.806 526.115 371.52 496.04 379.144C454.041 389.687 409.514 415.363 362.37 442.55C356.5 445.935 350.431 449.435 344.407 452.881C342.046 454.235 339.682 455.594 337.32 456.95C292.459 482.718 246.071 509.365 203.547 523.032C199.248 524.415 194.983 525.674 190.873 526.771C167.951 532.879 147.343 534.884 129.623 532.731C109.78 530.319 93.363 522.651 80.8302 509.94C68.5311 497.463 59.5005 479.78 53.9899 457.382C48.6486 435.671 46.617 409.58 47.9525 379.828C48.0151 378.468 48.0857 377.079 48.1604 375.701C49.3172 354.56 51.8114 332.438 54.2213 311.045C55.1982 302.382 56.207 293.422 57.1113 284.677C60.5528 251.514 61.9915 225.112 61.6336 201.592C61.5859 198.466 61.5029 195.32 61.386 192.234C59.2561 136.113 45.9384 87.4157 22.8679 51.4063C-4.84391 8.2918 -42.5454 -13.7284 -83.2922 -10.5908C-125.17 -7.25105 -184.013 33.9052 -210.582 103.605L-210.725 103.581C-204.316 86.7694 -195.81 70.9532 -185.441 56.5729C-175.872 43.3032 -164.869 31.4416 -152.737 21.3207C-130.328 2.62547 -104.993 -9.0915 -83.2256 -10.8279C-61.7453 -12.4813 -41.2391 -7.28839 -22.2759 4.61019C-5.22104 15.3061 10.0167 30.9845 23.0147 51.2076C46.0971 87.2393 59.4246 135.964 61.5529 192.113C61.6699 195.199 61.7535 198.351 61.8012 201.476C62.1581 225.01 60.7219 251.421 57.278 284.596C56.375 293.342 55.3639 302.303 54.3884 310.967C51.9778 332.355 49.4856 354.472 48.3291 375.605C48.2544 376.983 48.1835 378.369 48.1209 379.729C45.4061 440.224 56.7634 485.172 80.9651 509.719C104.856 533.95 141.85 539.606 190.921 526.531C195.028 525.433 199.29 524.176 203.588 522.795C246.097 509.134 292.476 482.492 337.329 456.727C339.693 455.369 342.055 454.012 344.415 452.658C350.44 449.211 356.508 445.712 362.378 442.329C409.531 415.137 454.07 389.454 496.088 378.907C509.676 375.461 520.786 374.62 530.054 376.329C541.655 378.469 550.452 384.79 556.204 395.11C561.136 403.997 564.593 416.312 566.773 432.759C568.695 447.271 569.41 463.054 570.101 478.316C570.506 487.249 570.887 495.689 571.494 503.691C577.225 579.301 582.216 660.318 586.752 751.371L586.582 751.491Z" fill="#FFE492"/>
<path d="M586.09 748.833C582.599 664.218 578.487 580.286 573.868 499.372C573.38 491.175 573.15 482.461 572.906 473.238C572.116 443.234 571.218 409.227 560.21 389.754C549.703 371.219 529.445 367.302 498.277 377.778C461.248 390.164 423.165 413.492 382.845 438.189C370.219 445.923 357.161 453.923 344.192 461.523C321.538 474.827 297.214 488.795 272.84 500.823C246.735 513.706 224.144 522.548 203.773 527.861C199.493 528.977 195.246 529.959 191.149 530.776C168.483 535.288 148.101 535.517 130.57 531.456C111.163 526.958 95.3353 517.193 83.5278 502.422C61.8197 474.923 52.4059 428.642 55.5497 364.863C55.6173 363.502 55.693 362.111 55.7704 360.734C56.9222 340.541 59.0635 319.526 61.1352 299.203C62.1097 289.637 63.1188 279.744 64.0066 270.088C67.0824 236.819 68.2556 210.57 67.6986 187.484C67.6232 184.377 67.5129 181.251 67.369 178.189C64.7553 122.451 50.9589 74.2819 27.4768 38.8802C-0.790924 -3.63715 -38.9521 -24.884 -79.9774 -20.9482C-122.452 -16.7903 -180.087 23.9542 -208.062 93.7831L-208.201 93.7502C-201.501 77.0241 -192.808 61.2876 -182.365 46.9755C-172.69 33.7179 -161.651 21.8516 -149.554 11.7091C-138.157 2.15307 -126.194 -5.5777 -113.997 -11.2708C-102.155 -16.7961 -90.6878 -20.1335 -79.9125 -21.1884C-58.2743 -23.263 -37.5672 -18.4805 -18.3676 -6.96788C-1.11059 3.37919 14.3625 18.7351 27.6218 38.6783C51.1182 74.1004 64.9221 122.299 67.5393 178.064C67.6822 181.129 67.7941 184.258 67.8695 187.365C68.4256 210.464 67.2525 236.723 64.1767 270.003C63.2879 279.662 62.2788 289.554 61.3032 299.122C59.2326 319.443 57.0909 340.455 55.9394 360.641C55.8597 362.02 55.7864 363.408 55.7174 364.769C52.5765 428.498 61.9804 474.742 83.6682 502.214C106.107 530.282 143.292 540.077 191.204 530.537C195.298 529.72 199.544 528.74 203.82 527.626C249.365 515.751 298.141 488.352 344.197 461.303C357.166 453.704 370.222 445.706 382.848 437.972C423.176 413.27 461.267 389.936 498.314 377.545C529.531 367.053 549.827 370.981 560.358 389.558C565.289 398.28 568.621 410.577 570.549 427.148C572.248 441.76 572.668 457.705 573.075 473.123C573.319 482.347 573.548 491.058 574.037 499.249C578.657 580.166 582.769 664.098 586.259 748.715L586.09 748.833Z" fill="#FFE492"/>
<path d="M585.609 746.178C582.83 661.323 579.739 576.791 576.422 494.928C576.078 486.689 576.012 477.875 575.94 468.543C575.709 438.02 575.446 403.422 564.378 384.201C553.667 365.629 532.78 363.082 500.527 376.411C466.748 390.345 431.137 413.797 396.697 436.48C379.428 447.853 361.571 459.613 343.99 470.166C316.232 486.843 293.631 499.12 272.862 508.803C247.252 520.742 224.731 528.556 204.015 532.692C199.762 533.543 195.531 534.246 191.44 534.782C170.127 537.575 150.902 536.35 134.245 531.146C133.319 530.856 132.405 530.555 131.496 530.241C112.472 523.678 97.2469 511.789 86.2416 494.908C80.9432 486.728 76.4714 477.05 72.9522 466.14C69.6437 455.887 67.0743 444.225 65.3145 431.478C62.1478 408.547 61.4432 381.86 63.1616 349.9C63.2366 348.525 63.314 347.148 63.3961 345.768C64.5137 326.943 66.2922 307.455 68.013 288.609C69.0054 277.73 70.0331 266.48 70.9197 255.494C73.6582 221.649 74.5421 196.32 73.7799 173.372C73.6772 170.286 73.5397 167.18 73.3685 164.139C70.2641 108.793 55.9914 61.1496 32.0978 26.3556C3.27457 -15.5619 -35.3467 -36.038 -76.6504 -31.3041C-118.663 -26.4462 -176.421 14.7064 -205.528 83.961L-205.664 83.921C-192.107 51.6633 -171.598 23.3703 -146.357 2.10202C-134.948 -7.51124 -122.994 -15.3274 -110.823 -21.1349C-98.9801 -26.7847 -87.4617 -30.287 -76.5856 -31.5444C-54.7897 -34.0428 -33.8828 -29.6684 -14.4467 -18.5417C3.01338 -8.54585 18.7221 6.49027 32.2425 26.151C56.1507 60.9681 70.431 108.64 73.5382 164.019C73.7083 167.063 73.8476 170.171 73.9503 173.258C74.7114 196.219 73.8286 221.556 71.0878 255.414C70.2002 266.402 69.1738 277.653 68.1801 288.531C66.4603 307.375 64.6815 326.86 63.5645 345.68C63.4824 347.06 63.4037 348.436 63.3296 349.809C59.6776 417.725 67.2196 465.122 86.387 494.709C113.001 535.534 158.238 538.907 191.501 534.546C195.59 534.009 199.817 533.307 204.069 532.457C251.715 522.943 303.875 494.055 343.993 469.951C361.571 459.403 379.427 447.642 396.693 436.271C431.14 413.585 466.76 390.125 500.555 376.185C514.987 370.221 526.895 367.51 536.955 367.901C549.362 368.382 558.638 373.802 564.524 384.01C569.481 392.618 572.706 404.972 574.386 421.776C575.866 436.583 575.989 452.776 576.108 468.438C576.179 477.767 576.245 486.579 576.59 494.813C579.907 576.676 582.998 661.208 585.778 746.064L585.609 746.178Z" fill="#FFE492"/>
<path d="M585.123 743.523L578.972 490.486C578.771 482.223 578.867 473.328 578.967 463.915C579.299 432.848 579.675 397.636 568.541 378.655C557.772 360.301 535.645 359.089 502.771 375.052C471.168 390.397 438.352 413.684 406.616 436.205C385.929 450.885 364.539 466.063 343.782 478.817C281.394 517.153 233.077 536.211 191.727 538.796C174.573 539.867 158.829 538.183 144.75 533.781C140.482 532.447 136.371 530.864 132.417 529.033C113.768 520.396 99.1434 506.387 88.9498 487.4C79.5032 469.799 73.6178 447.283 70.9633 418.562C68.8429 395.628 68.7808 369.058 70.7693 334.944C71.8181 316.94 73.3244 298.364 74.7812 280.4C78.0762 239.748 81.4841 197.712 79.8588 159.27C77.3644 100.308 62.4444 50.0165 36.7125 13.8317C7.33412 -27.483 -31.7462 -47.1909 -73.3284 -41.6588C-113.587 -36.3031 -171.337 2.21778 -203.001 74.1419L-203.134 74.0949C-188.981 41.9465 -168.244 13.7301 -143.166 -7.50424C-120.491 -26.7039 -95.6674 -38.9181 -73.2659 -41.8972C-51.3121 -44.8168 -30.2043 -40.8527 -10.5331 -30.1124C7.13104 -20.4701 23.0744 -5.75142 36.8563 13.6295C49.5888 31.5339 59.7475 53.0386 67.0512 77.5478C74.4156 102.262 78.7826 129.716 80.0281 159.147C81.6552 197.603 78.2473 239.65 74.9509 280.312C73.4952 298.274 71.9898 316.847 70.9407 334.848C68.0382 384.624 67.4812 446.923 89.1033 487.203C113.9 533.396 158.635 540.624 191.797 538.552C233.126 535.971 281.422 516.92 343.786 478.598C364.535 465.849 385.923 450.67 406.607 435.995C438.349 413.47 471.173 390.178 502.792 374.825C535.722 358.834 557.895 360.055 568.69 378.457C573.675 386.956 576.794 399.375 578.224 416.429C579.482 431.44 579.307 447.896 579.137 463.809C579.037 473.222 578.942 482.111 579.142 490.372L585.294 743.408L585.123 743.523Z" fill="#FFE492"/>
<path d="M591.618 726.249C592.315 656.548 591.68 599.613 589.62 547.077C588.627 521.558 587.26 496.318 585.556 472.057C585.041 464.719 584.729 456.987 584.399 448.8C583.571 428.223 582.714 406.947 578.476 390.031C576.206 380.935 573.238 374.002 569.401 368.836C557.668 352.873 535.358 354.028 503.092 372.271C486.401 381.693 469.942 393.207 456.043 403.228C441.328 413.836 426.143 425.86 411.458 437.487C390.349 454.202 368.523 471.485 347.033 485.469C333.943 494.012 321.249 501.334 309.301 507.232C285.397 519.033 261.561 527.462 238.454 532.286C224.209 535.194 210.589 536.5 197.976 536.167C187.109 535.869 176.722 534.411 167.1 531.831C152.699 527.973 139.835 521.498 128.867 512.58C117.207 503.097 107.608 490.779 100.341 475.965C93.8607 462.756 89.0721 447.178 85.7036 428.339C79.4161 393.256 78.901 354.802 79.1552 325.22C79.3059 310.628 79.6935 295.82 80.068 281.5C81.1494 240.26 82.1699 201.308 78.0821 165.049C74.6774 135.642 67.8083 109.036 57.6628 85.9642C49.8668 68.2339 39.8247 52.5874 27.8169 39.4578C24.9556 36.333 21.9665 33.3198 18.9338 30.5083C5.87128 18.4154 -10.2739 8.15274 -29.0513 0.00461982C-47.9625 -8.25711 -65.8646 -11.8198 -83.7794 -10.8807C-93.8966 -10.375 -104.532 -7.9446 -115.394 -3.66015C-153.74 11.4674 -189.01 45.9597 -209.743 88.609L-209.901 88.5304C-204.374 77.1608 -197.827 66.3068 -190.44 56.2652C-183.424 46.7275 -175.606 37.8579 -167.202 29.9023C-151.325 14.8751 -133.396 3.169 -115.354 -3.94823C-104.476 -8.2406 -93.8235 -10.6738 -83.6908 -11.18C-65.7577 -12.1187 -47.841 -8.55409 -28.9146 -0.284936C-10.1263 7.86657 6.02626 18.1369 19.0976 30.2379C22.1334 33.053 25.1238 36.0666 27.9868 39.1946C40.0047 52.3326 50.055 67.9924 57.8568 85.7378C68.0094 108.825 74.884 135.454 78.2885 164.88C82.379 201.16 81.3572 240.123 80.2772 281.374C79.9014 295.694 79.5147 310.499 79.3637 325.089C79.1091 354.657 79.6245 393.092 85.9092 428.153C89.274 446.973 94.0567 462.536 100.53 475.729C114.753 504.72 137.19 523.497 167.22 531.537C176.834 534.114 187.215 535.57 198.072 535.867C210.677 536.198 224.287 534.894 238.521 531.988C261.614 527.167 285.435 518.744 309.324 506.95C321.263 501.057 333.95 493.738 347.03 485.203C368.508 471.225 390.329 453.946 411.43 437.237C426.118 425.608 441.307 413.579 456.027 402.967C469.933 392.941 486.4 381.424 503.103 371.996C517.469 363.873 530.054 359.093 540.51 357.787C553.354 356.182 563.135 359.814 569.578 368.58C573.426 373.763 576.404 380.715 578.679 389.832C582.923 406.773 583.781 428.063 584.611 448.653C584.941 456.837 585.253 464.57 585.767 471.902C587.473 496.166 588.84 521.409 589.832 546.933C591.892 599.475 592.526 656.415 591.83 726.121L591.618 726.249Z" fill="#FFE492"/>
<path d="M598.117 708.97C601.14 638.813 601.237 579.346 598.413 527.171C597.05 501.69 594.941 476.947 592.144 453.628C591.401 447.441 590.786 441.061 590.133 434.307C588.179 414.08 586.158 393.165 580.604 377.396C577.812 369.407 574.43 363.395 570.264 359.014C554.312 342.235 525.109 355.446 503.418 369.483C488.065 379.389 472.833 391.255 457.283 403.559C443.672 414.328 430.097 426.247 415.728 438.864C394.399 457.594 372.343 476.96 350.288 492.117C337.174 501.173 324.379 508.548 312.26 514.037C289.685 524.264 267.05 530.61 243.059 533.44C229.634 535.023 216.567 535.056 204.224 533.534C193.818 532.229 183.904 529.826 174.758 526.385C161.148 521.275 148.985 513.623 138.606 503.645C127.706 493.164 118.664 480.002 111.732 464.525C105.658 450.967 101.009 435.047 97.5169 415.858C91.1583 381.048 88.8441 343.938 87.5402 315.496C87.0577 304.967 86.6697 294.404 86.2949 284.185C84.8015 243.493 83.3925 205.054 76.3073 170.828C71.0124 145.248 62.556 122.375 51.1753 102.846C42.5643 88.07 32.0151 75.7181 18.9272 65.0846C15.9056 62.6328 12.7655 60.2927 9.5954 58.1294C-4.33883 48.6509 -20.547 41.6462 -40.286 33.4713C-54.487 27.5141 -73.4511 20.5863 -94.2306 19.8908C-104.052 19.516 -114.333 20.9835 -124.786 24.2472C-161.593 35.7433 -195.872 65.2103 -216.486 103.075L-216.661 102.954C-211.195 92.9126 -204.773 83.3964 -197.575 74.665C-190.716 66.3462 -183.111 58.6912 -174.969 51.9058C-159.498 39.0165 -142.124 29.3301 -124.725 23.8969C-114.251 20.6262 -103.952 19.1567 -94.1131 19.5315C-73.3129 20.2254 -54.335 27.1602 -40.1245 33.1204C-20.3787 41.2974 -4.16512 48.3038 9.77891 57.7881C12.9507 59.9545 16.0936 62.2954 19.1192 64.7485C32.219 75.3937 42.7787 87.7568 51.3995 102.55C62.7918 122.098 71.2557 144.99 76.5564 170.595C83.6461 204.847 85.0578 243.296 86.5505 284.004C86.925 294.22 87.313 304.783 87.7965 315.31C89.1017 343.742 91.4142 380.838 97.768 415.63C101.254 434.799 105.899 450.702 111.966 464.244C125.596 494.676 146.778 515.464 174.918 526.031C184.056 529.467 193.96 531.87 204.357 533.171C216.688 534.692 229.743 534.661 243.157 533.078C267.127 530.251 289.744 523.91 312.299 513.693C324.403 508.21 337.181 500.845 350.281 491.798C372.316 476.654 394.362 457.295 415.683 438.576C430.058 425.953 443.635 414.032 457.254 403.257C472.813 390.946 488.051 379.076 503.419 369.159C517.481 360.058 529.986 354.259 540.59 351.917C553.447 349.078 563.501 351.357 570.471 358.688C574.652 363.087 578.046 369.119 580.847 377.132C586.409 392.93 588.431 413.864 590.388 434.107C591.04 440.858 591.657 447.237 592.399 453.421C595.197 476.748 597.306 501.499 598.669 526.988C601.493 579.176 601.397 638.654 598.372 708.826L598.117 708.97Z" fill="#FFE492"/>
<path d="M604.614 691.691C609.984 620.121 610.832 559.795 607.204 507.268C605.47 481.826 602.618 457.581 598.73 435.203C597.9 430.419 597.099 425.368 596.325 420.484C593.128 400.308 589.823 379.446 582.734 364.766C579.422 357.84 575.627 352.745 571.131 349.195C553.877 335.563 524.962 351.188 503.746 366.694C489.388 377.15 475.022 389.598 461.128 401.638L458.526 403.892C445.915 414.812 433.192 427.136 419.721 440.185C398.269 460.963 376.09 482.447 353.543 498.765C340.387 508.348 327.493 515.777 315.218 520.845C293.818 529.682 272.35 534.051 247.661 534.595C234.894 534.876 222.382 533.633 210.47 530.899C200.526 528.585 191.086 525.235 182.413 520.937C156.147 507.944 136.199 485.115 123.12 453.085C117.467 439.238 112.955 422.981 109.331 403.378C103.172 370.263 99.3311 337.003 95.926 305.775C95.4685 301.589 95.0227 297.433 94.5796 293.309C89.98 250.538 85.6368 210.138 74.5338 176.617C67.2856 154.733 57.2423 135.596 44.6861 119.735C35.4672 108.091 24.1329 98.5988 10.0382 90.7156C6.85978 88.9431 3.56949 87.2739 0.257682 85.7548C-8.08168 81.9516 -17.3338 78.8653 -27.1299 75.5983C-34.9981 72.9738 -43.1335 70.2605 -51.5238 66.9438C-67.6852 60.4375 -86.0027 53.0658 -104.687 50.6701C-114.328 49.4347 -124.252 49.9371 -134.185 52.1645C-169.437 60.0715 -202.728 84.5174 -223.238 117.558L-223.42 117.376C-218.012 108.664 -211.717 100.486 -204.709 93.0667C-198.007 85.972 -190.615 79.5265 -182.737 73.9105C-167.671 63.1702 -150.851 55.509 -134.096 51.751C-124.141 49.5173 -114.196 49.0134 -104.537 50.252C-85.8336 52.6508 -67.5077 60.0278 -51.3395 66.5362C-42.9535 69.8489 -34.8191 72.5646 -26.9537 75.1882C-17.1535 78.4565 -7.8987 81.5436 0.447783 85.3517C3.7613 86.874 7.05563 88.5445 10.2367 90.3178C24.3494 98.2093 35.6969 107.714 44.9284 119.375C57.4998 135.254 67.5536 154.413 74.8101 176.321C85.9232 209.871 90.2689 250.29 94.8696 293.081C95.3127 297.204 95.7609 301.359 96.2159 305.547C99.6203 336.769 103.459 370.021 109.616 403.125C113.237 422.705 117.744 438.947 123.391 452.776C136.452 484.766 156.375 507.563 182.606 520.54C191.27 524.833 200.7 528.179 210.634 530.49C222.533 533.221 235.034 534.462 247.786 534.182C272.45 533.638 293.893 529.275 315.265 520.45C327.514 515.393 340.383 507.977 353.517 498.411C376.035 482.113 398.202 460.641 419.64 439.875C433.118 426.82 445.847 414.491 458.468 403.563L461.07 401.308C474.971 389.263 489.345 376.807 503.719 366.339C525.003 350.783 554.013 335.116 571.348 348.811C575.864 352.378 579.675 357.491 582.999 364.444C590.102 379.156 593.412 400.041 596.611 420.239C597.385 425.122 598.186 430.173 599.015 434.954C602.905 457.344 605.758 481.602 607.493 507.058C611.122 559.607 610.274 619.954 604.902 691.547L604.614 691.691Z" fill="#FFE492"/>
<path d="M611.112 674.41C618.733 602.437 620.377 539.506 615.996 487.368C613.889 461.966 610.296 438.218 605.318 416.783C604.6 413.687 603.879 410.482 603.18 407.382C598.569 386.905 593.801 365.727 584.869 352.142C581.053 346.267 576.844 342.094 572.002 339.379C553.428 328.968 524.812 346.97 504.076 363.905C491.228 374.355 478.484 386.459 466.158 398.165C464.026 400.191 461.896 402.213 459.768 404.225C448.08 415.276 436.137 427.971 423.494 441.41C402 464.256 379.774 487.879 356.797 505.418C343.304 515.717 330.671 522.991 318.173 527.66C292.032 537.423 270.183 537.231 252.257 535.758C240.134 534.76 228.175 532.244 216.712 528.273C207.234 524.951 198.269 520.651 190.065 515.498C165.732 500.232 147.039 475.387 134.508 441.652C129.292 427.618 124.921 411.019 121.141 390.908C117.305 370.633 113.951 351.229 110.706 332.462C108.501 319.707 106.418 307.66 104.31 296.067C96.3413 252.245 88.4666 213.444 72.7618 182.414C63.5619 164.24 51.9338 148.834 38.199 136.626C28.3553 127.876 16.5822 121.434 1.15228 116.347C-2.1799 115.258 -5.62165 114.259 -9.0769 113.381C-14.3331 112.065 -19.9015 111.007 -25.7959 109.89C-37.1069 107.745 -49.9293 105.313 -62.7635 100.418C-67.6502 98.5527 -72.5861 96.5339 -77.3592 94.5792C-89.6364 89.553 -102.332 84.3563 -115.146 81.4483C-124.557 79.3144 -134.127 78.8535 -143.587 80.0803C-177.267 84.4517 -209.569 103.879 -229.998 132.048L-230.171 131.79C-224.822 124.413 -218.654 117.574 -211.839 111.461C-205.293 105.591 -198.114 100.357 -190.505 95.9069C-175.841 87.3322 -159.576 81.6958 -143.466 79.6052C-133.983 78.3749 -124.391 78.8347 -114.959 80.9749C-102.131 83.8848 -89.431 89.0856 -77.147 94.1139C-72.3752 96.0681 -67.4394 98.087 -62.554 99.9518C-49.732 104.843 -36.92 107.274 -25.6144 109.418C-19.7174 110.536 -14.1476 111.594 -8.88598 112.911C-5.42666 113.791 -1.98221 114.791 1.35403 115.881C16.8066 120.972 28.5957 127.428 38.4566 136.191C52.2076 148.414 63.8524 163.839 73.0632 182.038C80.1578 196.053 86.2135 212.894 91.5776 233.519C96.3801 251.983 100.272 271.76 104.638 295.774C106.746 307.369 108.829 319.416 111.035 332.171C114.279 350.935 117.634 370.34 121.468 390.611C125.244 410.703 129.611 427.284 134.819 441.303C147.333 474.993 165.999 499.803 190.298 515.047C198.492 520.195 207.447 524.488 216.914 527.807C228.363 531.774 240.309 534.288 252.419 535.282C270.321 536.756 292.141 536.947 318.236 527.201C330.7 522.545 343.3 515.29 356.757 505.017C379.696 487.508 401.904 463.904 423.381 441.077C436.032 427.63 447.981 414.929 459.681 403.865C461.809 401.853 463.938 399.831 466.069 397.807C478.403 386.093 491.156 373.981 504.02 363.518C517.511 352.5 529.87 344.644 540.754 340.167C553.647 334.864 564.235 334.447 572.225 338.928C577.091 341.656 581.32 345.849 585.152 351.747C594.109 365.368 598.882 386.572 603.499 407.075C604.198 410.175 604.919 413.38 605.637 416.473C610.618 437.925 614.212 461.695 616.322 487.116C618.647 514.801 619.292 545.717 618.235 579.003C617.301 608.423 615.013 640.474 611.437 674.262L611.112 674.41Z" fill="#FFE492"/>
<path d="M617.613 657.125C627.572 583.751 629.987 519.941 624.789 467.466C622.309 442.104 617.976 418.855 611.911 398.362C611.622 397.386 611.334 396.411 611.045 395.433C604.747 374.101 598.235 352.043 587.009 339.519C582.66 334.667 578.038 331.411 572.88 329.565C552.984 322.447 524.665 342.793 504.414 361.113C492.53 371.819 480.841 383.971 469.539 395.723C466.744 398.63 463.854 401.634 461.021 404.555C450.228 415.68 439.057 428.672 427.231 442.429C405.717 467.452 383.473 493.325 360.059 512.068C346.513 522.911 333.78 530.239 321.132 534.473C296.216 542.812 275.515 540.575 256.858 536.917C245.353 534.661 233.948 530.867 222.958 525.642C213.949 521.311 205.459 516.065 197.721 510.052C175.341 492.688 157.905 465.828 145.9 430.215C141.092 415.955 136.979 399.501 132.959 378.434C125.279 338.488 119.032 310.09 112.705 286.359C100.119 239.161 87.6474 209.809 71.0038 188.215C59.8611 173.759 46.6471 162.086 31.727 153.52C21.3752 147.577 9.2097 144.016 -7.71996 141.98C-11.1921 141.57 -14.7839 141.242 -18.3978 141.008C-21.8163 140.798 -25.3308 140.683 -29.0518 140.559C-42.7918 140.105 -58.3661 139.591 -73.9949 133.892C-82.2329 130.889 -90.3689 127.173 -98.2372 123.581C-107.18 119.499 -116.426 115.277 -125.602 112.227C-134.802 109.17 -144.018 107.746 -152.987 107.999C-185.069 108.899 -216.388 123.312 -236.764 146.553L-236.906 146.198C-231.613 140.159 -225.573 134.66 -218.953 129.852C-212.562 125.21 -205.601 121.189 -198.259 117.899C-183.998 111.506 -168.285 107.896 -152.824 107.463C-143.831 107.212 -134.594 108.637 -125.372 111.701C-116.188 114.753 -106.937 118.976 -97.9914 123.062C-90.1258 126.653 -81.9938 130.368 -73.7626 133.369C-58.1612 139.057 -42.6038 139.571 -28.8793 140.026C-25.156 140.148 -21.6398 140.266 -18.2189 140.474C-14.601 140.709 -11.0064 141.038 -7.53057 141.447C9.42444 143.488 21.6112 147.053 31.9844 153.01C46.9254 161.588 60.1585 173.277 71.3168 187.755C87.9834 209.377 100.468 238.76 113.065 285.999C119.395 309.738 125.644 338.145 133.326 378.102C137.344 399.152 141.452 415.589 146.254 429.834C158.243 465.396 175.653 492.219 198 509.557C205.728 515.561 214.209 520.799 223.204 525.126C234.182 530.344 245.572 534.134 257.062 536.388C275.692 540.04 296.356 542.276 321.215 533.956C333.815 529.74 346.504 522.435 360.003 511.63C383.366 492.928 405.588 467.082 427.077 442.086C438.912 428.32 450.091 415.318 460.899 404.177C463.731 401.258 466.622 398.254 469.416 395.347C480.728 383.585 492.424 371.425 504.329 360.701C517.545 348.744 529.832 339.86 540.849 334.292C553.754 327.77 564.608 326.009 573.109 329.047C578.296 330.902 582.942 334.175 587.312 339.05C598.575 351.617 605.097 373.705 611.402 395.069C611.691 396.047 611.98 397.025 612.268 397.998C618.34 418.514 622.679 441.791 625.162 467.181C630.363 519.702 627.947 583.562 617.981 656.987L617.613 657.125Z" fill="#FFE492"/>
<path d="M263.699 538.78C262.94 538.542 262.193 538.306 261.46 538.069C250.554 534.569 239.701 529.502 229.205 523.004C220.67 517.665 212.654 511.472 205.38 504.601C194.981 494.795 185.622 482.449 177.559 467.905C169.773 453.859 162.956 437.331 157.297 418.774C151.751 400.594 147.694 380.999 144.778 365.959C137.923 330.848 129.956 300.801 121.101 276.652C106.758 237.542 90.2838 211.282 69.2523 194.013C56.5645 183.595 41.6188 175.52 25.9877 170.634C25.7455 170.558 25.5046 170.483 25.2614 170.41C11.7989 166.291 -2.80701 166.627 -16.5837 167.605C-20.1731 167.868 -23.9165 168.211 -27.7116 168.627C-29.7948 168.864 -31.8908 169.123 -34.1084 169.398C-49.7535 171.341 -67.4859 173.542 -85.224 167.361C-96.0263 163.596 -106.366 158.136 -116.365 152.855C-122.82 149.444 -129.496 145.919 -136.054 142.999C-145.069 138.987 -153.927 136.601 -162.385 135.911C-192.841 133.419 -223.177 142.82 -243.538 161.06L-243.626 160.594C-233.183 151.24 -220.527 144.271 -206.007 139.878C-192.141 135.685 -176.985 134.106 -162.18 135.319C-153.7 136.013 -144.818 138.402 -135.783 142.425C-129.218 145.346 -122.539 148.875 -116.081 152.287C-106.089 157.566 -95.756 163.024 -84.9675 166.782C-67.2754 172.948 -49.5728 170.749 -33.9543 168.81C-31.7344 168.534 -29.6384 168.275 -27.5538 168.039C-23.756 167.623 -20.0089 167.279 -16.4168 167.017C-2.6168 166.038 12.0138 165.702 25.5098 169.828C41.4312 174.696 56.6637 182.871 69.5677 193.468C80.4214 202.383 89.8931 213.47 98.5211 227.364C106.83 240.746 114.345 256.727 121.492 276.222C130.355 300.389 138.327 330.458 145.186 365.592C148.098 380.623 152.152 400.203 157.692 418.364C169.176 456.017 185.33 484.851 205.704 504.068C212.969 510.929 220.974 517.114 229.497 522.447C239.98 528.935 250.817 533.998 261.709 537.49C278.752 542.956 299.031 548.163 324.196 540.705C336.934 536.93 349.708 529.58 363.249 518.238C387.03 498.318 409.225 470.148 430.691 442.905C441.733 428.891 452.163 415.654 462.117 404.486C465.306 400.908 468.561 397.212 471.709 393.637C482.344 381.56 493.339 369.074 504.633 357.885C517.583 345 529.8 335.084 540.941 328.412C553.859 320.677 564.977 317.565 573.985 319.163C579.546 320.149 584.61 322.5 589.465 326.352C602.449 336.647 610.795 357.376 618.895 379.518C625.957 398.824 631.18 422.241 633.999 447.241C637.157 474.942 637.763 506.47 635.796 540.947C634.045 571.664 630.251 604.893 624.522 639.712L624.111 639.849C636.416 565.074 639.603 500.383 633.58 447.576C630.766 422.612 625.553 399.229 618.5 379.955C610.414 357.852 602.084 337.163 589.149 326.905C584.32 323.074 579.284 320.737 573.758 319.757C557.204 316.823 532.696 330.518 504.75 358.326C493.476 369.494 482.49 381.97 471.865 394.034C468.716 397.612 465.459 401.309 462.27 404.887C452.334 416.035 441.912 429.261 430.882 443.262C420.349 456.629 409.458 470.453 398.175 483.487C385.383 498.264 373.983 509.788 363.319 518.723C349.718 530.115 336.887 537.497 324.089 541.291C312.802 544.637 301.748 545.724 290.295 544.621C280.6 543.677 271.51 541.221 263.699 538.78Z" fill="#FFE492"/>
<path d="M284.888 546.735C277.988 544.578 271.667 541.794 266.048 539.219C255.716 534.484 245.416 528.141 235.438 520.364C227.381 514.02 219.838 506.883 213.024 499.146C194.35 477.989 179.845 447.953 168.678 407.329C163.807 389.614 160.032 371.012 156.585 353.479C149.744 318.949 140.628 289.836 129.488 266.942C113.105 233.273 93.4071 211.939 67.4973 199.804C52.7345 192.89 35.8927 188.564 18.792 187.29C4.47865 186.224 -10.9137 189.637 -25.454 193.22C-29.0956 194.126 -32.9914 195.141 -37.0306 196.237C-38.0413 196.513 -39.0628 196.798 -40.0972 197.083C-57.0951 201.796 -76.3286 207.129 -95.4968 201.137C-95.8202 201.036 -96.1412 200.933 -96.4643 200.824C-109.335 196.543 -121.197 189.198 -132.67 182.092C-137.218 179.275 -141.923 176.363 -146.518 173.76C-155.496 168.678 -163.763 165.421 -171.796 163.808C-201.013 157.944 -229.639 162.223 -250.336 175.555L-250.341 174.971C-240.11 168.381 -227.458 163.838 -213.757 161.832C-200.28 159.859 -185.683 160.317 -171.542 163.156C-163.486 164.773 -155.198 168.037 -146.2 173.131C-141.599 175.736 -136.895 178.65 -132.344 181.466C-120.882 188.563 -109.03 195.902 -96.184 200.175C-76.7657 206.639 -57.2172 201.216 -39.973 196.433C-38.94 196.147 -37.9171 195.864 -36.9054 195.585C-32.8625 194.488 -28.9654 193.473 -25.3211 192.568C-10.7558 188.976 4.66361 185.561 19.0161 186.629C36.1433 187.906 53.0131 192.238 67.8006 199.163C80.6408 205.176 91.8165 213.391 101.967 224.273C112.421 235.481 121.561 249.267 129.907 266.422C141.059 289.346 150.188 318.495 157.037 353.06C160.482 370.586 164.254 389.177 169.122 406.875C180.274 447.444 194.757 477.435 213.4 498.559C220.205 506.282 227.737 513.411 235.784 519.747C245.747 527.513 256.032 533.849 266.349 538.574C283.711 546.527 302.707 553.762 327.172 547.435C340.046 544.104 352.906 536.71 366.488 524.828C390.682 503.663 413.812 471.707 434.219 443.513C444.487 429.327 454.186 415.928 463.325 404.778C466.622 400.756 469.993 396.586 473.253 392.554C483.45 379.938 493.995 366.894 504.93 355.051C517.628 341.242 529.774 330.293 541.029 322.509C553.957 313.569 565.339 309.11 574.854 309.259C580.802 309.35 586.283 310.782 591.611 313.628C606.495 321.585 616.703 341.103 625.517 361.013C633.656 379.395 639.642 402.309 642.831 427.279C646.408 454.985 646.993 486.821 644.572 521.895C642.406 553.261 637.861 587.079 631.06 622.413L630.614 622.537C645.07 547.43 649.137 480.04 642.374 427.652C639.193 402.73 633.217 379.859 625.095 361.513C616.302 341.651 606.121 322.181 591.3 314.256C586.004 311.426 580.556 310.005 574.647 309.912C557.077 309.637 532.376 325.827 505.091 355.5C494.178 367.318 483.645 380.35 473.458 392.953C470.197 396.987 466.826 401.157 463.525 405.184C454.406 416.308 444.717 429.694 434.46 443.865C414.02 472.102 390.853 504.109 366.579 525.345C352.922 537.292 339.99 544.727 327.043 548.078C315.809 550.983 304.905 551.291 293.708 549.011C290.675 548.409 287.734 547.624 284.888 546.735Z" fill="#FFE492"/>
<path d="M297.424 553.532C297.325 553.501 297.228 553.47 297.129 553.439C287.397 550.349 278.711 545.29 270.649 540.371C260.864 534.404 251.122 526.784 241.687 517.726C234.107 510.383 227.04 502.296 220.683 493.695C203.818 470.912 190.915 439.836 180.075 395.89C176.17 380.067 172.84 363.302 169.617 347.092C169.215 345.063 168.811 343.035 168.406 341.008C161.463 306.455 151.197 278.271 137.893 257.242C119.674 228.449 96.08 211.556 65.7621 205.601C49.1377 202.337 30.6654 201.844 12.3423 204.176C-2.11555 206.018 -16.717 211.658 -34.3045 218.841C-37.8735 220.306 -41.696 221.897 -46.3325 223.85L-46.5918 223.961C-55.5536 227.768 -65.7106 232.081 -76.0782 234.534C-87.9853 237.351 -98.326 237.266 -107.693 234.301C-122.294 229.664 -135.197 220.282 -147.673 211.207C-150.729 208.983 -153.892 206.684 -156.974 204.535C-165.816 198.376 -173.74 194.184 -181.199 191.722C-208.665 182.658 -236.343 182.055 -257.135 190.064L-257.039 189.376C-246.854 185.452 -234.563 183.526 -221.493 183.805C-208.399 184.083 -194.36 186.579 -180.894 191.023C-173.413 193.492 -165.469 197.692 -156.608 203.865C-153.523 206.015 -150.361 208.314 -147.303 210.538C-134.842 219.601 -121.956 228.973 -107.39 233.598C-107.325 233.618 -107.258 233.639 -107.193 233.659C-86.3189 240.185 -64.253 230.814 -46.5106 223.279L-46.2501 223.169C-41.6111 221.214 -37.7887 219.623 -34.2183 218.158C-16.6011 210.964 -1.97366 205.312 12.5291 203.466C30.8839 201.128 49.3863 201.622 66.0388 204.893C80.8746 207.808 93.7554 213.148 105.418 221.222C117.986 229.923 128.753 241.511 138.331 256.651C151.661 277.719 161.946 305.949 168.9 340.559C169.304 342.586 169.708 344.616 170.11 346.645C173.331 362.849 176.66 379.609 180.561 395.42C191.386 439.311 204.27 470.344 221.106 493.088C227.455 501.678 234.512 509.751 242.08 517.086C251.502 526.132 261.231 533.74 271 539.697C288.495 550.371 306.186 559.511 330.155 554.202C343.163 551.32 356.11 543.88 369.732 531.455C394.341 509.011 417.367 474.45 437.685 443.954C447.196 429.678 456.181 416.191 464.539 405.111C467.756 400.848 471.044 396.427 474.225 392.15C484.171 378.777 494.454 364.952 505.234 352.255C517.695 337.519 529.771 325.535 541.124 316.638C554.065 306.499 565.707 300.696 575.724 299.394C581.936 298.587 587.719 299.055 593.389 300.827C593.512 300.866 593.635 300.904 593.758 300.945C611.315 306.615 623.494 326.154 632.145 342.543C641.358 360.004 648.11 382.413 651.671 407.35C655.666 435.065 656.233 467.205 653.354 502.881C650.77 534.895 645.471 569.304 637.601 605.155L637.119 605.262C648.829 551.918 660.769 474.355 651.171 407.771C647.62 382.89 640.883 360.533 631.692 343.114C623.068 326.77 610.928 307.288 593.455 301.648C587.704 299.784 581.844 299.286 575.539 300.107C556.978 302.521 532.082 321.204 505.436 352.714C494.68 365.382 484.409 379.192 474.474 392.549C471.292 396.829 468.001 401.252 464.784 405.518C456.446 416.569 447.472 430.038 437.972 444.3C417.619 474.85 394.549 509.477 369.844 532.009C356.131 544.517 343.097 552.006 330.002 554.906C318.904 557.362 308.242 556.913 297.424 553.532Z" fill="#FFE492"/>
<path d="M306.834 560.217C304.734 559.56 302.638 558.772 300.541 557.851C291.363 553.82 283.336 547.826 275.24 541.52C265.855 534.211 256.92 525.564 247.925 515.086C240.828 506.748 234.236 497.717 228.333 488.24C213.347 464.224 201.977 432.212 191.465 384.447C188.854 372.586 186.449 360.249 184.124 348.318C182.858 341.824 181.551 335.107 180.222 328.532C173.133 293.715 161.717 266.466 146.292 247.539C125.913 222.531 99.0042 210.706 64.026 211.388C45.5461 211.749 25.4432 215.091 5.8929 221.05C-9.81247 225.838 -25.4525 234.568 -42.0113 243.81L-43.1562 244.449C-45.7454 245.899 -48.3657 247.371 -51.0178 248.86C-52.5459 249.72 -54.0838 250.584 -55.6352 251.455C-65.3251 256.924 -75.6723 262.555 -86.2717 266.065C-98.5779 270.14 -109.258 270.699 -118.926 267.772C-135.018 262.895 -148.6 251.329 -161.731 240.137C-163.604 238.539 -165.544 236.888 -167.435 235.305C-176.298 227.882 -183.661 222.903 -190.608 219.631C-216.244 207.558 -242.971 202.063 -263.941 204.557L-263.737 203.786C-242.712 201.285 -215.928 206.788 -190.248 218.882C-183.282 222.163 -175.9 227.156 -167.019 234.592C-165.128 236.177 -163.188 237.829 -161.314 239.427C-148.344 250.481 -134.936 261.906 -119.114 266.852C-118.943 266.905 -118.773 266.959 -118.6 267.01C-98.0588 273.229 -77.0807 262.864 -55.6055 250.746C-54.0541 249.876 -52.5162 249.011 -50.9881 248.152C-48.3351 246.66 -45.7171 245.19 -43.1255 243.738L-41.9806 243.099C-25.3938 233.842 -9.72712 225.097 6.02959 220.293C25.6161 214.321 45.7534 210.974 64.2658 210.613C99.3321 209.929 126.312 221.787 146.747 246.863C162.209 265.838 173.652 293.149 180.757 328.043C182.086 334.62 183.395 341.335 184.66 347.831C186.984 359.76 189.387 372.093 191.998 383.947C202.496 431.657 213.851 463.624 228.81 487.599C234.705 497.061 241.287 506.08 248.374 514.405C257.356 524.868 266.277 533.503 275.649 540.8C289.875 551.88 307.578 565.67 333.14 560.944C346.282 558.515 359.312 551.03 372.976 538.06C398.004 514.304 420.888 477.04 441.078 444.165C449.849 429.883 458.134 416.393 465.749 405.429C468.716 401.157 471.753 396.729 474.69 392.444C484.541 378.078 494.727 363.223 505.532 349.444C517.775 333.772 529.78 320.754 541.214 310.75C554.171 299.414 566.072 292.27 576.588 289.515C583.337 287.746 589.653 287.331 595.899 288.244C604.264 289.466 612.042 293.386 619.681 300.219C626.144 306.003 632.388 313.798 638.769 324.052C649.059 340.59 656.575 362.496 660.506 387.403C664.922 415.124 665.468 447.575 662.131 483.849C659.126 516.513 653.074 551.513 644.139 587.879L643.624 587.963C662.485 511.186 668.289 440.123 659.966 387.867C656.046 363.027 648.55 341.183 638.29 324.695C624.542 302.602 610.983 291.263 595.612 289.016C589.409 288.108 583.136 288.521 576.435 290.275C551.417 296.828 524.204 326.318 505.782 349.902C495.004 363.647 484.83 378.484 474.991 392.834C472.052 397.12 469.013 401.55 466.045 405.825C458.453 416.756 450.179 430.231 441.419 444.495C421.185 477.441 398.253 514.783 373.11 538.647C359.338 551.719 346.204 559.265 332.957 561.713C323.979 563.373 315.373 562.886 306.834 560.217Z" fill="#FFE492"/>
<path d="M314.586 566.931C300.277 562.457 289.256 551.79 279.827 542.664C270.956 534.08 262.56 524.193 254.158 512.44C247.545 503.116 241.428 493.138 235.978 482.782C219.63 451.764 210.393 411.689 202.848 373.002C201.308 365.104 199.809 356.99 198.361 349.145C196.35 338.25 194.27 326.985 192.031 316.056C184.773 280.864 172.21 254.546 154.693 237.833C132.03 216.216 101.805 209.455 62.2899 217.167C41.9445 221.137 20.2125 228.313 -0.557695 237.918C-16.5764 245.325 -32.0883 256.149 -48.5101 267.609C-49.6737 268.42 -50.8406 269.236 -52.0117 270.05L-52.6478 270.494C-56.6414 273.284 -60.7703 276.166 -64.9404 279.052C-74.949 286.007 -85.7151 293.069 -96.6163 297.629C-109.271 302.921 -120.243 304.103 -130.164 301.241C-147.579 296.219 -161.556 282.32 -175.07 268.879C-176.018 267.937 -176.961 266.999 -177.901 266.07C-186.826 257.235 -193.649 251.518 -200.022 247.532C-223.708 232.722 -249.488 222.334 -270.752 219.034L-270.441 218.203C-249.141 221.507 -223.323 231.909 -199.607 246.74C-193.215 250.737 -186.377 256.466 -177.436 265.316C-176.496 266.246 -175.553 267.184 -174.605 268.129C-161.116 281.543 -147.164 295.411 -129.819 300.418C-108.273 306.633 -85.049 292.273 -64.9716 278.325C-60.8015 275.439 -56.6726 272.556 -52.68 269.769L-52.0439 269.325C-50.8718 268.508 -49.7059 267.695 -48.5423 266.884C-32.0918 255.404 -16.5536 244.561 -0.480913 237.129C20.3274 227.506 42.0996 220.319 62.4804 216.341C81.2139 212.686 97.5061 212.287 112.286 215.121C128.773 218.284 143.195 225.671 155.152 237.078C172.726 253.843 185.327 280.237 192.606 315.526C194.847 326.461 196.927 337.728 198.938 348.626C200.386 356.472 201.883 364.582 203.424 372.478C210.962 411.123 220.185 451.153 236.504 482.114C241.947 492.455 248.055 502.419 254.658 511.73C263.047 523.465 271.43 533.337 280.288 541.91C293.888 555.072 310.815 571.454 336.111 567.692C349.386 565.717 362.5 558.186 376.205 544.67C401.661 519.562 424.361 479.508 444.39 444.166C452.437 429.967 460.038 416.555 466.946 405.75C469.501 401.753 472.12 397.617 474.653 393.616C484.56 377.967 494.807 361.783 505.817 346.635C517.856 330.017 529.792 315.959 541.291 304.856C554.267 292.327 566.428 283.843 577.438 279.637C584.588 276.906 591.321 275.568 598.026 275.546C607.057 275.516 615.843 278.359 624.14 283.993C631.405 288.928 638.552 296.184 645.378 305.562C656.743 321.175 665.026 342.577 669.331 367.454C674.167 395.185 674.694 427.94 670.898 464.815C667.469 498.128 660.662 533.722 650.667 570.604L650.121 570.663C671.303 492.511 677.919 420.524 668.752 367.964C664.461 343.169 656.206 321.837 644.88 306.275C630.197 286.105 614.785 276.324 597.764 276.381C591.108 276.403 584.423 277.731 577.324 280.441C551.128 290.448 524.144 322.206 506.118 347.088C495.135 362.196 484.903 378.358 475.009 393.987C472.476 397.989 469.855 402.127 467.297 406.128C460.412 416.898 452.821 430.291 444.784 444.473C435.149 461.475 424.229 480.745 412.794 498.437C399.692 518.707 387.777 534.031 376.367 545.287C369.768 551.795 363.154 557.022 356.706 560.822C349.771 564.909 342.772 567.501 335.902 568.522C328.04 569.693 320.984 568.93 314.586 566.931Z" fill="#FFE492"/>
<path d="M321.267 573.727C316.536 572.248 311.922 569.902 307.371 566.674C298.406 560.318 290.98 551.547 284.425 543.812C276.165 534.06 268.082 522.615 260.404 509.797C254.277 499.497 248.634 488.573 243.636 477.323C229.276 445.063 221.83 405.809 214.245 361.559C213.571 357.626 212.892 353.618 212.238 349.74C209.657 334.475 206.99 318.691 203.853 303.584C196.413 267.95 182.703 242.565 163.103 228.133C138.38 209.928 103.881 208.182 60.5662 222.947C38.3396 230.524 14.978 241.531 -6.99373 254.783C-23.5372 264.761 -39.1972 277.727 -55.7772 291.455C-57.4619 292.85 -59.1527 294.249 -60.8519 295.653C-65.0831 299.152 -69.6336 302.906 -74.2307 306.649C-83.8852 314.533 -95.3239 323.379 -106.946 329.191C-119.957 335.699 -131.224 337.506 -141.389 334.714C-159.998 329.607 -174.147 313.253 -187.831 297.438L-188.353 296.837C-195.054 289.096 -202.244 281.143 -209.421 275.436C-231.299 258.04 -255.492 243.149 -277.541 233.505L-277.133 232.638C-255.061 242.292 -230.846 257.196 -208.949 274.608C-201.751 280.332 -194.548 288.297 -187.836 296.049L-187.315 296.651C-173.66 312.43 -159.537 328.746 -141.02 333.83C-119.634 339.702 -96.3245 323.883 -74.3204 305.912C-69.7243 302.17 -65.1765 298.416 -60.9464 294.919C-59.2481 293.517 -57.5564 292.116 -55.8727 290.723C-39.2643 276.972 -23.576 263.983 -6.97818 253.972C15.0357 240.693 38.4415 229.665 60.7093 222.074C81.0308 215.149 99.5448 211.787 115.733 212.083C134.229 212.424 150.325 217.541 163.572 227.293C183.246 241.78 197.008 267.256 204.472 303.012C207.61 318.132 210.28 333.922 212.862 349.196C213.517 353.072 214.195 357.08 214.869 361.012C222.447 405.22 229.885 444.432 244.218 476.636C249.211 487.868 254.845 498.776 260.962 509.062C268.63 521.861 276.699 533.289 284.947 543.026C297.876 558.291 313.968 577.285 339.105 574.444C352.513 572.928 365.71 565.354 379.454 551.287C405.348 524.784 428.803 479.968 447.651 443.958C454.992 429.93 461.925 416.682 468.161 406.085C470.126 402.743 472.142 399.298 474.091 395.965C484.217 378.651 494.69 360.747 506.122 343.841C523.868 317.518 550.796 283.302 578.304 269.776C585.899 266.042 593.052 263.78 600.169 262.863C618.834 260.358 636.275 268.509 652.006 287.082C664.447 301.772 673.496 322.669 678.174 347.517C683.431 375.254 683.94 408.318 679.684 445.795C677.732 462.985 674.764 481.07 670.865 499.546C667.14 517.194 662.546 535.294 657.211 553.343L656.636 553.37C680.146 473.841 687.576 400.932 677.556 348.07C672.895 323.316 663.88 302.499 651.488 287.864C635.831 269.375 618.486 261.262 599.938 263.75C592.873 264.66 585.775 266.904 578.236 270.611C550.919 284.042 524.136 318.085 506.477 344.279C495.074 361.14 484.617 379.021 474.503 396.312C472.553 399.645 470.538 403.093 468.57 406.436C462.356 416.998 455.431 430.227 448.101 444.234C438.617 462.355 427.869 482.893 416.426 501.872C403.278 523.68 391.246 540.055 379.642 551.931C373.023 558.706 366.373 564.086 359.882 567.921C352.887 572.053 345.816 574.548 338.867 575.332C332.766 576.024 326.931 575.497 321.267 573.727Z" fill="#FFE492"/>
<path d="M327.169 580.544C321.499 578.772 316.067 575.63 310.777 571.081C302.203 563.715 295.194 553.745 289.009 544.948C281.223 533.875 273.695 521.157 266.636 507.145C260.994 495.877 255.827 484.006 251.279 471.858C238.756 438.45 232.832 398.584 226.559 356.382C226.248 354.294 225.939 352.203 225.626 350.112C222.701 330.504 219.678 310.228 215.66 291.108C208.031 254.992 193.175 230.538 171.504 218.426C144.285 203.21 106.375 206.674 58.8299 228.716C35.0479 239.741 9.38069 254.985 -13.4435 271.639C-30.6775 284.214 -46.6987 299.417 -63.6611 315.513C-65.6694 317.419 -67.6835 319.331 -69.7076 321.244C-73.7543 325.075 -78.5614 329.615 -83.5385 334.24C-92.7677 342.83 -104.944 353.607 -117.281 360.722C-130.645 368.429 -142.208 370.873 -152.631 368.186C-161.177 365.927 -169.471 360.79 -177.988 352.478C-185.301 345.343 -191.751 336.99 -198.826 327.601C-205.254 318.959 -212.094 309.97 -218.845 303.335C-238.842 283.681 -260.882 265.055 -284.348 247.968L-283.855 247.078C-260.374 264.171 -238.323 282.812 -218.314 302.475C-211.545 309.129 -204.695 318.131 -198.259 326.781C-186.402 342.522 -171.647 362.117 -152.243 367.244C-130.003 372.973 -106.154 354.415 -83.6941 333.505C-78.7203 328.885 -73.9156 324.347 -69.8713 320.518C-67.8471 318.604 -65.8331 316.692 -63.8271 314.789C-46.8367 298.666 -30.7876 283.438 -13.4976 270.822C9.3731 254.135 35.0899 238.861 58.9175 227.816C106.607 205.707 144.642 202.243 171.966 217.515C182.442 223.371 191.423 232.173 198.655 243.674C206.417 256.013 212.358 271.771 216.316 290.502C220.34 309.643 223.365 329.93 226.291 349.551C226.602 351.645 226.914 353.734 227.225 355.822C233.491 397.987 239.411 437.815 251.909 471.16C256.451 483.29 261.61 495.145 267.244 506.394C274.294 520.384 281.809 533.085 289.584 544.142C301.804 561.519 317.012 583.146 342.076 581.196C355.653 580.139 368.936 572.521 382.679 557.905C409.036 530.024 432.195 482.085 450.805 443.568C457.461 429.792 463.747 416.78 469.351 406.421C470.507 404.283 471.669 402.134 472.835 399.974C483.373 380.457 494.271 360.274 506.403 341.046C523.815 313.377 550.568 276.841 579.145 259.915C587.118 255.193 594.687 252.008 602.288 250.179C612.872 247.589 623.228 248.054 633.068 251.555C642.051 254.751 650.645 260.487 658.611 268.599C672.127 282.36 681.942 302.752 686.995 327.571C692.675 355.313 693.163 388.689 688.447 426.767C686.284 444.239 683.014 462.62 678.727 481.398C674.622 499.382 669.577 517.779 663.731 536.078L663.13 536.071C688.603 456.334 697.062 380.558 686.338 328.174C681.306 303.463 671.533 283.155 658.077 269.451C641.485 252.551 622.125 246.212 602.09 251.114C594.547 252.93 587.036 256.089 579.126 260.775C550.746 277.585 524.136 313.934 506.811 341.465C494.712 360.643 483.829 380.796 473.305 400.288C472.139 402.449 470.976 404.6 469.82 406.737C464.236 417.058 457.958 430.053 451.312 443.809C432.649 482.437 409.423 530.514 382.896 558.574C376.271 565.619 369.589 571.159 363.037 575.036C355.988 579.207 348.845 581.6 341.807 582.148C336.728 582.538 331.867 582.013 327.169 580.544Z" fill="#FFE492"/>
<path d="M332.535 587.396C326.075 585.377 320.008 581.428 314.193 575.49C305.966 567.089 299.397 555.93 293.602 546.088C286.278 533.649 279.305 519.653 272.875 504.495C267.718 492.276 263.027 479.456 258.929 466.397C248.836 434.245 244.279 397.297 239.454 358.179C238.665 351.784 237.848 345.173 237.017 338.663C234.091 315.791 231.348 296.827 227.475 278.633C219.651 242.01 203.651 218.487 179.916 208.717C150.091 196.441 108.77 205.109 57.1023 234.481C31.4341 249.073 4.09303 268.252 -19.8849 288.488C-37.9485 303.733 -54.498 321.301 -72.0185 339.9C-74.1889 342.204 -76.3674 344.517 -78.5536 346.829C-82.4514 350.956 -87.5988 356.392 -92.8331 361.819C-114.888 384.718 -140.576 407.362 -163.863 401.651C-164.588 401.47 -165.306 401.266 -166.015 401.045C-183.735 395.505 -196.607 377.703 -209.288 358.356L-210.077 357.141C-216.332 347.498 -222.241 338.391 -228.255 331.226C-250.919 304.225 -273.766 280.272 -291.139 262.422L-290.568 261.513C-273.192 279.37 -250.339 303.328 -227.667 330.339C-221.636 337.522 -215.721 346.642 -209.457 356.296L-208.669 357.51C-195.524 377.566 -182.176 395.963 -163.456 400.651C-140.427 406.298 -114.946 383.826 -93.056 361.098C-87.825 355.675 -82.6823 350.244 -78.7855 346.119C-76.5983 343.804 -74.4221 341.493 -72.2518 339.189C-54.7037 320.562 -38.1279 302.964 -20.0066 287.671C4.02053 267.392 31.4166 248.175 57.1357 233.553C81.0061 219.982 103.032 210.719 122.603 206.015C145.058 200.617 164.494 201.196 180.371 207.73C204.229 217.549 220.312 241.187 228.172 277.982C232.05 296.204 234.795 315.187 237.726 338.079C238.558 344.589 239.374 351.203 240.164 357.598C244.984 396.677 249.537 433.589 259.612 465.677C263.702 478.721 268.386 491.52 273.536 503.721C279.956 518.86 286.918 532.834 294.232 545.254C305.712 564.752 320 589.018 345.061 587.939C358.76 587.348 372.124 579.686 385.915 564.515C412.737 535.133 435.568 483.987 453.913 442.89C459.898 429.482 465.553 416.815 470.555 406.748L470.67 406.518C481.873 383.977 493.459 360.67 506.696 338.239C518.224 318.667 529.944 301.496 541.533 287.196C554.6 271.075 567.541 258.575 579.999 250.042C588.334 244.333 596.322 240.224 604.417 237.483C626.321 230.005 647.35 234.367 665.229 250.103C672.425 256.435 678.705 264.584 683.899 274.321C689.122 284.115 693.136 295.32 695.831 307.62C701.934 335.369 702.404 369.053 697.225 407.736C692.572 442.506 683.249 480.915 670.267 518.808L669.64 518.763C697.427 437.663 706.72 360.941 695.135 308.271C689.731 283.609 679.2 263.814 664.679 251.037C646.901 235.391 626.008 231.047 604.257 238.475C596.224 241.195 588.301 245.271 580.03 250.935C556.77 266.868 531.571 297.198 507.158 338.646C493.955 361.019 482.386 384.295 471.198 406.803L471.084 407.033C466.099 417.062 460.452 429.711 454.475 443.101C436.072 484.323 413.173 535.623 386.163 565.211C379.513 572.527 372.795 578.221 366.199 582.135C359.085 586.355 351.873 588.649 344.757 588.957C340.52 589.138 336.454 588.622 332.535 587.396Z" fill="#FFE492"/>
<path d="M-177.486 434.471C-185.41 431.994 -192.89 426.623 -200.282 418.118C-207.626 409.668 -213.977 399.187 -219.748 389.121C-220.79 387.291 -221.82 385.467 -222.844 383.655C-227.939 374.638 -232.752 366.121 -237.663 359.123C-257.25 331.226 -276.368 305.679 -294.859 280.976L-297.922 276.882L-297.285 275.962L-294.221 280.057C-275.731 304.764 -256.608 330.312 -237.019 358.216C-232.093 365.231 -227.274 373.759 -222.174 382.788C-221.151 384.599 -220.121 386.423 -219.08 388.251C-207.233 408.914 -194.048 429.472 -174.666 434.066C-150.805 439.633 -123.519 412.743 -102.415 388.698C-97.0133 382.55 -91.7112 376.398 -87.6957 371.725C-85.4811 369.15 -83.2744 366.576 -81.0733 364.007C-62.8234 342.717 -45.5855 322.608 -26.5112 304.529C-1.3354 280.669 27.7392 257.502 55.3573 239.301C80.9801 222.413 104.771 210.179 126.07 202.939C150.5 194.634 171.598 192.957 188.777 197.953C214.697 205.306 231.944 228.024 240.031 265.469C244.505 286.247 247.158 308.039 249.164 326.618C250.254 336.728 251.252 347.054 252.218 357.04C255.635 392.392 259.169 428.945 267.316 460.204C270.954 474.171 275.165 487.917 279.831 501.059C285.617 517.294 292.025 532.541 298.882 546.376C309.599 567.999 322.935 594.91 348.047 594.69C361.868 594.568 375.314 586.863 389.154 571.132C416.457 540.189 438.912 485.732 456.953 441.976C462.288 429.036 467.328 416.812 471.762 407.089C481.756 385.17 493.546 359.75 506.993 335.446C518.375 314.848 530.023 296.635 541.613 281.315C554.723 263.985 567.926 250.148 580.854 240.185C589.421 233.583 598.066 228.409 606.548 224.803C618.664 219.632 630.585 217.726 641.981 219.14C652.654 220.464 662.702 224.663 671.846 231.618C679.558 237.485 686.297 245.275 691.873 254.775C697.485 264.334 701.79 275.404 704.667 287.676C707.99 301.809 709.749 317.823 709.893 335.272C710.031 351.804 708.722 369.785 706.005 388.713C700.922 424.125 690.823 463.145 676.802 501.547L676.15 501.463C706.259 418.996 716.384 341.331 703.932 288.379C698.239 264.105 686.646 244.302 671.285 232.618C652.291 218.171 629.864 215.823 606.428 225.826C598.013 229.403 589.437 234.537 580.938 241.086C556.578 259.857 531.873 291.73 507.51 335.823C494.097 360.06 482.329 385.437 472.351 407.322C467.933 417.01 462.901 429.214 457.574 442.138C448.673 463.724 438.584 488.192 427.213 511.34C414.018 538.201 401.661 557.992 389.437 571.845C382.764 579.43 376.011 585.281 369.367 589.233C362.191 593.502 354.906 595.699 347.714 595.761C344.086 595.793 340.701 595.264 337.536 594.275C318.583 588.35 307.426 565.834 298.199 547.218C291.334 533.362 284.914 518.093 279.121 501.834C274.448 488.674 270.232 474.907 266.589 460.921C258.425 429.598 254.887 393.006 251.467 357.621C250.501 347.638 249.503 337.315 248.413 327.21C246.412 308.654 243.763 286.892 239.296 266.154C231.254 228.909 214.108 206.323 188.335 199.005C147.966 187.268 93.7518 214.951 55.3789 240.243C27.8162 258.409 -1.19837 281.526 -26.3216 305.338C-45.3389 323.363 -62.5509 343.44 -80.7725 364.697C-82.9736 367.265 -85.1817 369.839 -87.3973 372.416C-91.4151 377.091 -96.7206 383.248 -102.126 389.403C-110.986 399.497 -124.337 414.048 -137.943 423.83C-144.551 428.581 -150.864 431.964 -156.708 433.888C-163.224 436.032 -169.41 436.448 -175.09 435.122C-175.896 434.936 -176.694 434.719 -177.486 434.471Z" fill="#FFE492"/>
<path d="M-188.961 467.891C-196.895 465.411 -204.268 459.839 -211.43 450.933C-218.845 441.714 -225.085 430.061 -230.209 419.875C-231.782 416.742 -233.335 413.576 -234.837 410.515C-239.037 401.958 -243.004 393.873 -247.073 387.013C-261.681 362.376 -276.325 338.204 -290.488 314.826C-295.172 307.093 -300.016 299.098 -304.705 291.337L-304.004 290.406C-299.315 298.166 -294.471 306.161 -289.786 313.894C-275.624 337.272 -260.978 361.448 -246.369 386.087C-242.291 392.966 -238.318 401.059 -234.114 409.627C-232.613 412.688 -231.058 415.851 -229.488 418.984C-218.858 440.102 -205.844 463.007 -185.879 467.475C-161.346 472.917 -133.39 442.98 -111.774 416.294C-106.235 409.457 -100.759 402.567 -96.6074 397.328C-94.476 394.64 -92.351 391.952 -90.2304 389.271C-71.1614 365.153 -53.1511 342.374 -33.0171 321.386C-6.83074 294.089 23.923 266.978 53.5762 245.048C94.8014 214.671 153.179 180.148 197.177 188.179C225.195 193.2 243.603 214.995 251.886 252.96C255.604 270.025 258.29 289.207 260.595 315.162C261.76 328.278 262.703 341.79 263.615 354.854C265.99 388.844 268.444 423.991 275.014 454.741C278.195 469.641 281.931 484.331 286.118 498.406C291.193 515.434 297.05 531.955 303.524 547.509C313.515 571.29 325.947 600.89 351.024 601.451C364.742 601.832 378.656 593.86 392.382 577.762C420.192 545.191 443.153 484.858 459.916 440.806C464.621 428.443 469.064 416.766 472.958 407.443C481.61 386.723 493.329 359.5 507.28 332.666C531.44 286.162 556.48 251.733 581.7 230.341C590.56 222.797 599.635 216.673 608.67 212.136C621.529 205.672 634.229 202.589 646.416 202.978C657.897 203.345 668.676 206.765 678.454 213.145C686.682 218.583 693.872 226.025 699.828 235.261C705.841 244.589 710.439 255.516 713.496 267.74C717.033 281.866 718.892 297.964 719.02 315.589C719.141 332.291 717.713 350.496 714.776 369.701C709.259 405.756 698.385 445.384 683.328 484.3L682.656 484.172C715.094 400.336 726.053 321.724 712.723 268.496C706.685 244.35 694.312 225.072 677.885 214.216C657.574 200.968 633.614 200.616 608.592 213.197C599.63 217.695 590.63 223.77 581.841 231.255C556.787 252.504 531.895 286.74 507.854 333.015C493.941 359.776 482.246 386.946 473.61 407.626C469.732 416.916 465.293 428.578 460.594 440.925C451.929 463.696 442.105 489.507 430.785 514.165C417.603 542.877 405.145 563.92 392.699 578.496C385.994 586.361 379.205 592.373 372.518 596.365C365.269 600.694 357.914 602.786 350.658 602.586C339.378 602.332 329.686 596.362 321.027 584.333C313.501 573.875 307.808 560.324 302.785 548.371C296.301 532.795 290.437 516.251 285.354 499.198C281.16 485.103 277.419 470.392 274.233 455.472C267.648 424.659 265.192 389.474 262.815 355.449C261.904 342.389 260.959 328.884 259.796 315.779C257.494 289.87 254.813 270.724 251.103 253.699C242.872 215.952 224.584 194.29 196.744 189.301C152.934 181.307 94.745 215.728 53.6436 246.013C24.0498 267.898 -6.63963 294.952 -32.7707 322.191C-52.8484 343.12 -70.8329 365.867 -89.8726 389.949C-91.9942 392.632 -94.1192 395.32 -96.2506 398.009C-100.405 403.252 -105.886 410.149 -111.431 416.991C-133.238 443.916 -161.459 474.115 -186.329 468.597C-187.212 468.398 -188.091 468.163 -188.961 467.891Z" fill="#FFE492"/>
<path d="M-200.389 501.331C-222.066 494.555 -234.903 464.387 -246.281 437.642C-249.778 429.424 -253.081 421.661 -256.486 414.905L-311.491 305.794L-310.732 304.854L-255.728 413.965C-252.312 420.737 -249.006 428.509 -245.505 436.739C-233.686 464.518 -220.289 496.004 -197.095 500.888C-171.912 506.195 -143.274 473.216 -121.138 443.895C-113.899 434.305 -106.675 424.502 -99.6882 415.022C-80.5802 389.096 -60.8223 362.285 -39.5272 338.242C-22.6182 319.151 -3.39994 299.594 16.0483 281.688C37.384 262.043 58.7008 244.564 79.4028 229.737C102.228 213.392 123.75 200.696 143.37 192.004C165.07 182.391 184.384 177.724 200.78 178.13C233.623 178.947 254.806 199.911 263.736 240.442C271.159 274.123 272.874 313.438 274.532 351.46C275.976 384.555 277.47 418.774 282.71 449.266C288.763 484.482 297.327 517.913 308.167 548.627C317.3 574.505 328.665 606.715 354.007 608.196C375.408 609.447 396.223 590.53 417.638 550.358C435.853 516.189 450.803 473.574 462.816 439.334C466.909 427.665 470.777 416.643 474.158 407.782C492.794 358.932 511.215 319.555 530.471 287.404C542.486 267.345 554.945 250.01 567.5 235.882C581.524 220.101 596.091 207.843 610.794 199.451C623.515 192.191 636.144 187.978 648.335 186.93C659.939 185.932 670.899 187.808 680.911 192.506C700.601 201.745 715.309 221.378 722.325 247.786C726.076 261.902 728.034 278.087 728.146 295.887C728.252 312.758 726.705 331.188 723.547 350.669C717.596 387.368 705.945 427.606 689.853 467.03L689.159 466.859C723.425 382.903 735.52 301.308 721.511 248.592C706.636 192.611 660.056 172.4 610.753 200.541C561.913 228.418 517.464 296.247 474.868 407.906C471.497 416.738 467.636 427.746 463.548 439.401C451.509 473.715 436.527 516.421 418.228 550.745C408.261 569.44 398.195 583.823 388.309 593.495C382.749 598.932 377.103 603.031 371.527 605.674C365.593 608.487 359.563 609.736 353.602 609.388C351.166 609.245 348.809 608.819 346.531 608.108C338.233 605.513 330.955 599.115 324.433 588.724C317.086 577.017 311.7 561.755 307.372 549.492C296.518 518.735 287.941 485.259 281.879 449.992C276.626 419.436 275.132 385.176 273.686 352.046C272.03 314.073 270.317 274.806 262.913 241.211C254.041 200.956 233.006 180.131 200.388 179.321C134.409 177.681 29.9304 260.965 -39.2221 339.039C-60.4592 363.016 -80.1905 389.789 -99.2729 415.681C-106.263 425.166 -113.491 434.975 -120.738 444.573C-135.433 464.04 -147.472 477.505 -158.622 486.944C-165.581 492.834 -172.225 497.115 -178.369 499.669C-185.2 502.507 -191.66 503.316 -197.569 502.072C-198.521 501.867 -199.464 501.621 -200.389 501.331Z" fill="#FFE492"/>
</g>
</svg>
